<svg fill="none" height="498" viewBox="0 0 542 498" width="542" xmlns="http://www.w3.org/2000/svg" xmlns:xlink="http://www.w3.org/1999/xlink"><clipPath id="a"><path d="m0 0h542v498h-542z"/></clipPath><path d="m0 0h542v498h-542z" fill="#fff"/><g clip-path="url(#a)"><path d="m97.0842 386.033h-28.0266v90.954h28.0266z" fill="#f4ceae"/><path d="m97.0843 386.033v90.954h-13.663c-.0076-1.128.2873-2.244.8618-3.26 1.7587-3.085 3.0969-7.24 4.1269-11.268 4.0359-15.778 5.9907-32.966 7.1398-50.149.5886-8.735.9669-17.5 1.2122-26.277z" fill="#ffb594"/><path d="m296.417 98.3813c-.067-5.5368-1.462-11.0027-4.098-16.0582s-6.457-9.5926-11.226-13.3295c-5.282-4.0062-11.564-6.9237-18.365-8.5293s-13.941-1.8568-20.872-.7343c-3.489-7.0685-9.312-13.1095-16.753-17.3807-7.442-4.2711-16.178-6.5863-25.134-6.6609s-17.743 2.0945-25.28 6.2409-13.496 10.0893-17.144 17.0983c-11.363.4078-22.146 4.4095-30.267 11.2321-8.12 6.8226-13.001 15.9818-13.7 25.7081v.3242.3242.3242.3242.3242.3242.6484.3242.3242.3242.3242.3238.325.324.324c0 .108 0 .216.035.324s0 .21 0 .318 0 .216.035.325l.042.324.042.324.042.318c0 .108 0 .216.049.324s.035.216.049.325c.014.108.035.21.056.318s0 .216.056.318l.063.324.063.318.064.318c0 .109.049.217.07.319s.049.216.077.324.049.21.07.312.056.216.077.318l.084.318.084.319c0 .102.056.21.091.312l.084.318c.035.102.063.21.098.312s.063.21.091.318l.105.313c0 .102.063.21.098.312l.106.312c0 .102.07.204.112.312l.105.306c.042.108.077.21.119.313.042.102.077.204.112.306s.084.21.119.312l.126.306.126.306.126.306c.043.102.092.199.134.301l.133.306c.042.102.091.204.14.3l.133.306.147.3.147.301.147.294.148.3c.056.096.105.198.154.294l.161.3c.049.096.105.192.154.294s.112.193.161.289l.168.294.168.288.169.294.175.288.175.288.182.283c.056.096.119.192.182.288l.182.282.19.282.189.282.189.276.196.283c.063.09.133.18.196.276l.204.27c.063.096.133.186.203.276s.133.18.203.27l.21.276.21.265.211.27.217.264c.077.09.147.18.224.264l.217.264.224.264.232.259c.07.09.147.174.224.258l.231.258.119.126c.032.043.072.082.119.114.039.018.074.04.105.066l.113.12c.07.084.147.162.224.24l.224.24.224.235.231.234.232.234.238.228.231.228c.084.078.161.156.245.228s.154.156.238.228l.246.223c.077.078.161.15.238.222l.252.222.245.222.253.216.252.216.259.21.252.216c.091.067.176.139.26.211l.266.204.259.21.266.204.267.204.273.198c.084.072.175.138.266.204l.273.198.274.193.28.198.273.192.28.186.281.192.287.186.28.18.288.186.287.18.294.181.287.174.295.174.294.174.294.174.301.168.302.168.301.162.301.162.302.163.308.156.301.162.309.15.315.156.308.15c.105.048.21.096.308.15l.316.144.315.144.315.144.323.138.315.138.322.139.323.132.322.132.322.132.322.126.33.126.322.12.329.12.33.12.329.12.329.114.337.108.329.108.336.109.337.108.336.102.336.102.337.096.343.096.336.096.343.09.344.09.336.084.343.084.351.084.343.078.343.078.344.072.35.072.35.072.344.066.35.066.35.066.351.061.35.054.35.054.351.054.35.054.357.048h.246c4.366.46 8.767.645 13.165.552h15.233 74.628c1.859.042 3.719-.042 5.563-.252 1.704-.254 3.373-.656 4.982-1.201 3.625-1.161 7.069-2.704 10.25-4.593 5.768-3.473 10.572-7.994 14.068-13.239 3.496-5.246 5.6-11.087 6.161-17.109.091-.997.133-1.9931.126-2.9897z" fill="#80ffc6" opacity=".3"/><path d="m182.909 283.893c-.067-5.537-1.462-11.003-4.098-16.058-2.636-5.056-6.457-9.593-11.226-13.33-5.282-4.006-11.564-6.923-18.365-8.529s-13.94-1.857-20.872-.734c-3.489-7.069-9.312-13.11-16.753-17.381-7.442-4.271-16.1773-6.586-25.1336-6.661-8.9564-.074-17.743 2.095-25.28 6.241s-13.4959 10.089-17.1444 17.098c-11.3604.411-22.1402 4.414-30.2576 11.236-8.11742 6.823-12.996572 15.98-13.6951715 25.705v.324.324.324.324.325.324.648.324.325.324.324.324.324.325.324.324.318.324l.0420395.324.04204.325.04204.318c0 .108.035034.216.049047.324s0 .216.049047.324c.049046.108.035033.21.056053.318.02102.109.035033.217.056053.319l.06306.324.06306.318.06306.318c0 .108.049046.216.070066.318s.049047.217.077074.325c.028026.108.049046.21.070066.312s.056053.216.077073.318l.08408.318.084083.318c0 .102.05605.21.09108.313l.08408.318c.03504.102.06306.21.0981.312.03503.102.06306.21.09108.318l.1051.312c0 .102.06306.21.0981.312l.1051.313c0 .102.07006.204.1121.312l.1051.306c.04204.108.07708.21.11912.312s.07707.204.1121.306c.03504.103.08408.211.11912.313l.12612.306.12612.306.12612.306c.04204.102.09108.198.13312.3l.13313.307c.04204.102.09108.204.14013.3l.13313.306.14714.3.14714.3.14714.294.14714.301c.05605.096.1051.198.15414.294l.16116.3c.04904.096.1051.192.15414.294.04905.102.11211.192.16116.288l.16816.295.16816.288.16816.294.17516.288.17517.288.18217.282c.05605.096.11911.192.18217.289l.18218.282.18918.282.18918.282.18918.276.19618.282c.06306.09.13313.181.19619.277l.20319.27c.06306.096.13313.186.2032.276.07006.09.13312.18.20319.27l.2102.276.2102.264.2102.271.2172.264c.07708.09.14714.18.22422.264l.2172.264.22422.264.23122.258c.07006.09.14714.174.22421.258l.23122.259.11911.126c.03203.043.07229.082.11912.114.03821.018.07354.04.1051.066l.11208.12c.0701.084.1472.162.2242.24l.2242.24.2243.234.2312.234.2312.235.2382.228.2312.228c.0841.078.1612.156.2453.228s.1541.156.2382.228l.2452.222c.0771.078.1612.15.2383.222l.2522.223.4134.234.2522.216.2523.216.2592.21.2523.216c.0911.066.1751.138.2592.21l.2663.204.2592.211.2663.204.2662.204.2733.198c.0841.072.1751.138.2662.204l.2733.198.2732.192.2803.198.2733.193.2802.186.2803.192.2873.186.2802.18.2873.186.2873.18.2943.18.2872.174.2943.175.2943.174.2943.174.3013.168.2662.174.3013.162.3013.162.3013.162.3083.156.3013.162.3083.151.3153.156.3082.15c.1051.048.2102.096.3083.15l.3153.144.3153.144.3153.144.3223.138.3153.138.3224.138.3223.132.3223.132.3223.133.3223.126.3293.126.3223.12.3293.12.3293.12.3293.12.3293.114.3364.108.3293.108.3363.108.3363.108.3363.102.3364.102.3363.097.3433.096.3363.096.3433.09.3434.09.3363.084.3433.084.3504.084.3433.078.3433.078.3433.072.3504.072.3503.072.3433.066.3504.066.3503.066.3503.06.3504.054.3503.054.3503.054.3504.054.3573.048.2452.03c4.3668.461 8.7672.645 13.1655.553h15.2325 74.628c1.859.042 3.72-.042 5.563-.252 1.704-.254 3.373-.656 4.982-1.201 3.602-1.181 7.019-2.74 10.174-4.641 5.768-3.473 10.571-7.994 14.067-13.239 3.497-5.246 5.6-11.088 6.161-17.109.091-.997.133-1.993.126-2.99z" fill="#80ffc6" opacity=".3"/><path d="m542 263.481c-.063-5.542-1.455-11.014-4.092-16.075-2.636-5.06-6.459-9.602-11.232-13.343-5.282-4.006-11.564-6.924-18.365-8.529-6.801-1.606-13.94-1.857-20.872-.735-3.489-7.068-9.312-13.109-16.753-17.38s-16.177-6.587-25.134-6.661c-8.956-.075-17.743 2.094-25.28 6.241-7.537 4.146-13.496 10.089-17.144 17.098-11.363.408-22.146 4.41-30.266 11.232-8.121 6.823-13.002 15.982-13.701 25.708v.324.325.324.324.324.324.649.324.324.324.325.324.324.324.324c0 .108 0 .217.035.325s0 .216 0 .324v.318l.042.324.042.324.042.325c0 .102 0 .21.049.318.05.108.035.216.049.324.015.108.001.21.057.318s0 .216.056.324l.063.319.063.318.063.318c0 .108.049.216.07.324s.049.21.077.318.049.21.07.318c.021.109.056.211.077.319l.084.312.084.318c0 .108.056.21.091.318l.084.312.099.319c0 .102.063.204.091.312l.105.312c0 .102.063.21.098.312l.105.312c.035.102.07.21.112.313l.105.312.119.306c.035.102.077.204.112.306s.084.21.119.312l.127.306.126.307.126.306.133.306c.042.096.091.198.133.3s.091.204.14.306.091.199.133.301l.147.3.148.3.147.3.147.294.154.294.161.301c.049.096.105.192.154.294s.112.192.161.294l.169.288.168.294.168.289.175.288.175.288c.063.096.119.192.182.282s.12.192.183.288.119.186.182.282l.189.283.189.282.189.276.196.282c.064.09.134.18.197.276l.203.276c.063.09.133.181.203.271l.203.276.21.27.211.27.21.264.217.27c.077.084.147.174.224.265l.218.258c.077.09.147.18.224.264l.231.258c.07.09.147.174.224.258l.231.258.119.126c.033.044.073.082.12.114l.105.067.112.126.224.234c.07.084.147.162.224.24l.224.234.232.234.231.234.238.228.231.235c.084.072.161.15.246.228.084.078.154.15.238.222s.161.15.245.228.161.144.238.222l.252.216.246.222.252.217.252.216.259.216.253.21.259.21.266.21.259.204.267.204.266.205.273.204.266.198.274.198.273.192.28.198.274.192.28.186.28.192.287.187.281.186.287.18.287.18.294.18.288.174.294.174.294.174.294.174.302.169.301.168.301.162.302.162.301.162.308.162.302.156.308.156.315.15.308.15.309.15.315.145.315.144.316.144.322.138.315.138.322.138.323.132.322.132.322.132.323.126.329.126.322.12.33.127.329.114.329.12.33.114.336.108.329.114.337.102.336.108.336.102.337.102.336.096.343.096.336.096.344.09.343.09.336.084.344.084.35.085.343.078.344.078.343.078.35.072.351.066.343.066.35.066.351.066.35.06.35.054.351.06.35.048.35.054.358.048h.245c4.367.46 8.767.645 13.165.552h15.233 74.628c1.859.043 3.719-.041 5.563-.252 1.704-.253 3.373-.656 4.982-1.2 3.604-1.168 7.026-2.712 10.188-4.599 5.768-3.474 10.571-7.994 14.067-13.24 3.496-5.245 5.6-11.087 6.161-17.108.196-.967.231-1.964.224-2.954z" fill="#80ffc6" opacity=".3"/><path d="m536.745 417.173c-.062-5.542-1.455-11.013-4.091-16.074s-6.46-9.603-11.233-13.343c-5.282-4.007-11.564-6.924-18.365-8.53-6.801-1.605-13.94-1.856-20.872-.734-3.489-7.068-9.311-13.109-16.753-17.381-7.441-4.271-16.177-6.586-25.134-6.661-8.956-.074-17.743 2.095-25.28 6.241-7.537 4.147-13.495 10.09-17.144 17.099-11.363.407-22.146 4.409-30.266 11.232-8.121 6.822-13.002 15.982-13.701 25.708v.324.324.324.325.324.324.648.325.324.324.324.324.325.324.324c0 .108 0 .216.035.324s0 .21 0 .318 0 .216.035.325l.042.324.042.324.042.318c0 .108.036.216.05.324s.035.216.049.325c.014.108.035.21.056.318s.035.216.056.318l.063.324.063.318.063.318c0 .109.049.217.07.319s.049.216.077.324.049.21.07.312.056.216.077.318l.084.318.084.319c0 .102.056.21.091.312l.084.318c0 .102.064.21.099.312s.063.21.091.318l.105.313c0 .102.063.21.098.312l.105.312c.035.102.07.204.112.312l.105.306c.042.108.077.21.119.312.042.103.077.205.112.307s.084.21.119.312l.127.306.126.306.126.306c.042.102.091.199.133.301l.133.306c.042.102.091.204.14.3l.133.306.147.3.148.301.147.294.147.3c.056.096.105.198.154.294l.161.3c.049.096.105.192.154.294s.112.193.161.289l.169.294.168.288.168.294.175.288.175.288.182.283c.057.096.12.192.183.288l.182.282.189.282.189.282.189.276.197.283c.063.09.133.18.196.276l.203.27c.063.096.133.186.203.276s.133.18.203.27l.21.276.211.265.21.27.217.264c.077.09.147.18.224.264l.218.264.224.264.231.259c.07.09.147.174.224.258l.231.258.12.126c.032.043.072.082.119.114.038.018.073.04.105.066l.112.12c.07.084.147.162.224.24l.224.24.224.235.232.234.231.234.238.228.231.228c.084.078.162.156.246.228s.154.156.238.228l.245.223c.077.078.161.15.238.222l.253.222.245.222.252.216.252.216.259.21.253.216c.091.067.175.139.259.211l.266.204.259.21.267.204.266.204.273.198c.084.072.175.138.266.204l.274.198.273.193.28.198.274.192.28.186.28.192.287.186.281.18.287.186.287.18.294.181.288.174.294.174.294.174.295.174.301.168.301.168.301.162.302.162.301.162.308.157.302.162.308.15.315.156.308.15c.106.048.211.096.309.15l.315.144.315.144.316.144.322.138.315.138.323.139.322.132.322.132.322.132.323.126.329.126.322.12.33.12.329.12.329.12.33.114.336.108.329.108.337.108.336.109.336.102.337.102.336.096.343.096.337.096.343.09.343.09.336.084.344.084.35.084.343.078.344.078.343.072.35.072.351.072.343.066.35.066.351.066.35.061.35.054.351.054.35.054.35.054.358.048.245.03c4.367.46 8.767.645 13.166.552h15.232 74.628c1.859.042 3.72-.042 5.563-.252 1.704-.254 3.374-.656 4.982-1.201 3.626-1.161 7.069-2.704 10.251-4.593 5.768-3.473 10.571-7.994 14.067-13.239 3.497-5.246 5.6-11.087 6.161-17.109.091-.997.133-1.993.126-2.99z" fill="#80ffc6" opacity=".2"/><path d="m542 62.6598c-.067-5.5369-1.462-11.0028-4.098-16.0582-2.636-5.0555-6.457-9.5926-11.226-13.3296-5.281-4.0033-11.561-6.9187-18.359-8.5232s-13.935-1.8557-20.864-.7343c-3.489-7.0685-9.311-13.1095-16.753-17.38069-7.441-4.27117-16.177-6.5863365-25.134-6.6609546-8.956-.0746184-17.743 2.0945646-25.28 6.2409446-7.537 4.1464-13.495 10.0893-17.144 17.0982-11.363.4078-22.146 4.4096-30.266 11.2322-8.121 6.8226-13.002 15.9818-13.701 25.7081v.3242.3242.3242.3242.3242.3242.6484.3242.3242.3241.3242.3242.3242.3242.3242c0 .1081 0 .2162.035.3242.035.1081 0 .2101 0 .3182v.3242l.042.3242.042.3242.042.3182c0 .1081 0 .2161.049.3242.05.1081.036.2161.05.3242.014.108 0 .2101.056.3182.056.108 0 .2161.056.3182l.063.3242.063.3182.063.3181c0 .1081.049.2162.07.3182.021.1021.049.2162.077.3242.028.1081.049.2102.07.3122.021.1021.056.2161.077.3182l.084.3182.084.3182c0 .1021.056.2101.091.3122l.084.3182c0 .102.063.2101.099.3122.035.102.063.2101.091.3181l.105.3122c0 .1021.063.2102.098.3122l.105.3122c.035.1021.07.2041.112.3122l.105.3062c.042.1081.077.2101.119.3122.042.102.077.2041.112.3062.035.102.084.2101.119.3121l.127.3062.126.3062.126.3062c.042.1021.091.1981.133.3002l.133.3062c.042.102.091.2041.14.3001l.133.3062.147.3002.148.3002.147.2942.147.3002c.056.096.105.1981.154.2941l.161.3002c.049.0961.105.1921.154.2942.049.102.112.1921.161.2882l.169.2941.168.2882.168.2942.175.2882.175.2881.182.2822c.057.0961.12.1921.183.2882l.182.2822.189.2821.189.2822.189.2762.197.2821c.063.0901.133.1801.196.2762l.203.2702c.063.096.133.1861.203.2761.07.0901.133.1801.203.2702l.211.2761.21.2642.21.2702.217.2641c.077.0901.147.1801.224.2642l.218.2642.224.2641.231.2582c.07.09.147.1741.224.2581l.231.2582.12.1261c.032.0434.072.0819.119.114.038.0181.073.0402.105.0661l.112.12c.07.0841.147.1621.224.2402l.224.2401.224.2342.232.2341.231.2341.238.2282.231.2281c.084.0781.162.1561.246.2282.084.072.154.156.238.2281l.245.2221c.077.0781.161.1501.238.2222l.253.2221.245.2221.252.2162.252.2161.259.2101.253.2161c.091.0661.175.1381.259.2102l.266.2041.259.2101.267.2041.266.2042.273.1981c.084.072.175.1381.266.2041l.274.1981.273.1921.28.1982.273.1921.281.1861.28.1921.287.1861.281.1801.287.1861.287.1802.294.1801.288.1741.294.1741.294.1741.295.1741.301.1681.301.1681.301.1621.302.1621.301.1621.308.1561.302.1621.308.1501.315.1561.308.15c.105.0481.211.0961.309.1501l.315.1441.315.1441.316.1441.322.1381.315.1381.323.138.322.1321.322.1321.322.1321.323.1261.329.126.322.1201.33.1201.329.12.329.1201.33.1141.336.1081.329.108.337.1081.336.108.336.1021.337.1021.336.096.343.0958.336.096.344.09.343.09.336.085.344.084.35.084.343.078.344.078.343.072.35.072.351.072.343.066.35.066.351.066.35.06.35.054.351.054.35.054.35.054.358.048h.245c4.367.461 8.767.645 13.165.552h15.233 74.628c1.859.043 3.719-.041 5.563-.252 1.704-.253 3.373-.656 4.982-1.2 3.604-1.1675 7.026-2.7122 10.188-4.5992 5.768-3.4734 10.571-7.9939 14.067-13.2395 3.496-5.2455 5.6-11.0871 6.161-17.1087.182-.9967.217-2.0113.21-2.9898z" fill="#80ffc6" opacity=".2"/><path d="m437.538 35.7215h-192.543c-14.55 0-26.345 10.1066-26.345 22.5736v360.0969c0 12.467 11.795 22.574 26.345 22.574h192.543c14.55 0 26.345-10.107 26.345-22.574v-360.0969c0-12.467-11.795-22.5736-26.345-22.5736z" fill="#516582"/><path d="m464.583 57.6948v4.8029c.001-2.9647-.679-5.9004-2.003-8.6395s-3.264-5.2279-5.711-7.3242c-2.446-2.0963-5.351-3.7591-8.548-4.8932-3.196-1.1342-6.623-1.7175-10.083-1.7167h-192.543c-3.459-.0008-6.886.5825-10.082 1.7167-3.197 1.1341-6.102 2.7969-8.548 4.8932-2.447 2.0963-4.387 4.5851-5.711 7.3242s-2.005 5.6748-2.004 8.6395v-4.8029c-.001-2.9647.68-5.9004 2.004-8.6395s3.264-5.2279 5.711-7.3242c2.446-2.0963 5.351-3.7591 8.548-4.8932 3.196-1.1342 6.623-1.7175 10.082-1.7167h192.543c3.46-.0008 6.887.5825 10.083 1.7167 3.197 1.1341 6.102 2.7969 8.548 4.8932 2.447 2.0963 4.387 4.5851 5.711 7.3242s2.004 5.6748 2.003 8.6395z" fill="#233449" opacity=".3"/><path d="m436.368 45.8496h-189.769c-9.995 0-18.098 6.9429-18.098 15.5074v353.517c0 8.564 8.103 15.507 18.098 15.507h189.769c9.995 0 18.098-6.943 18.098-15.507v-353.517c0-8.5645-8.103-15.5074-18.098-15.5074z" fill="#fff"/><path d="m244.042 427.902s-5.409-25.215 21.02-71.629c0 0 14.826-4.419 11.603-18.227l6.264-7.439 14.048-16.69 14.714-17.512c8.506-10.099 16.928-20.041 23.066-31.393 2.192-4.053 4.135-8.201 5.823-12.428.743-1.868.643-3.907-.281-5.715l-4.26-8.333-101.274 126.022-9.669 49.692.701 4.394s15.666 8.705 18.245 9.258z" fill="#cfd2e8"/><path d="m437.762 442.839h-192.529c-7.634-.007-14.953-2.607-20.352-7.232s-8.436-10.896-8.445-17.437v-360.103c.009-6.5418 3.046-12.8133 8.444-17.439 5.399-4.6257 12.718-7.2279 20.353-7.2359h192.529c7.634.008 14.953 2.6104 20.35 7.2363 5.397 4.6258 8.433 10.8974 8.44 17.4386v360.103c-.007 6.541-3.043 12.811-8.44 17.436-5.398 4.625-12.717 7.226-20.35 7.233zm-192.529-405.2443c-6.334.0063-12.407 2.1653-16.886 6.0032-4.48 3.8379-6.999 9.0414-7.007 14.4691v360.103c.008 5.427 2.528 10.63 7.007 14.467s10.552 5.994 16.886 5.999h192.529c6.333-.006 12.404-2.164 16.882-6.001 4.477-3.837 6.996-9.039 7.004-14.465v-360.103c-.006-5.4271-2.524-10.6307-7.002-14.4688s-10.55-5.9972-16.884-6.0035z" fill="#1b3c47"/><path d="m453.765 59.706v356.819c.001 2.037-.466 4.054-1.376 5.935-.909 1.882-2.242 3.592-3.923 5.032-1.68 1.44-3.676 2.582-5.872 3.361-2.196.78-4.55 1.18-6.927 1.179h-189.733c-3.357.002-6.648-.797-9.505-2.308-2.856-1.512-5.165-3.675-6.667-6.247 2.516 1.089 5.296 1.655 8.114 1.651h189.733c2.377.001 4.731-.4 6.927-1.179s4.192-1.921 5.873-3.361c1.68-1.44 3.014-3.15 3.923-5.032s1.376-3.899 1.376-5.935v-356.7892c.004-2.4149-.657-4.7966-1.927-6.9521 2.996 1.2847 5.517 3.2582 7.28 5.6998 1.764 2.4416 2.7 5.2552 2.704 8.1265z" fill="#cfd2e8"/><path d="m435.408 431.882h-187.849c-5.266-.006-10.314-1.804-14.035-4.997-3.721-3.194-5.809-7.523-5.808-12.035v-353.493c.006-4.5084 2.098-8.8308 5.818-12.0193s8.764-4.9826 14.025-4.989h187.849c5.263.0048 10.308 1.7983 14.03 4.9869 3.721 3.1886 5.814 7.512 5.82 12.0214v353.493c.001 4.513-2.088 8.843-5.811 12.037-3.722 3.194-8.772 4.99-14.039 4.995zm-187.849-384.5315c-4.333.0048-8.487 1.4822-11.55 4.1081-3.063 2.6258-4.786 6.1856-4.789 9.8984v353.493c.003 3.713 1.726 7.272 4.789 9.898s7.217 4.104 11.55 4.108h187.849c4.333-.004 8.488-1.482 11.552-4.107 3.065-2.626 4.789-6.186 4.794-9.899v-353.493c-.005-3.7133-1.729-7.2731-4.794-9.8988-3.064-2.6257-7.219-4.1029-11.552-4.1077z" fill="#1b3c47"/><path d="m271.9 46.528h140.134c0 6.6875-3.101 13.1011-8.62 17.8299-5.519 4.7287-13.004 7.3853-20.808 7.3853h-81.278c-7.804 0-15.29-2.6566-20.808-7.3853-5.519-4.7288-8.62-11.1424-8.62-17.8299z" fill="#516582"/><path d="m277.506 61.9633c.757.846 1.579 1.6482 2.459 2.4015 2.73 2.3448 5.974 4.2043 9.545 5.4716s7.399 1.9173 11.265 1.9128h81.277c7.805 0 15.29-2.6566 20.809-7.3853 5.519-4.7288 8.619-11.1424 8.619-17.8299h-5.724c-1.233 5.811-4.807 11.0669-10.099 14.851-5.292 3.7842-11.967 5.8565-18.86 5.8555h-81.277c-6.523.0094-12.863-1.8479-18.014-5.2772z" fill="#213144" opacity=".3"/><path d="m382.122 72.9439h-81.277c-8.267-.0079-16.192-2.8252-22.037-7.8337-5.846-5.0085-9.134-11.7992-9.143-18.8824v-1.5009h143.637v1.5009c-.01 7.0832-3.298 13.8739-9.143 18.8824s-13.77 7.8258-22.037 7.8337zm-108.862-25.2151c.453 6.0148 3.559 11.6568 8.688 15.7818 5.13 4.125 11.897 6.4243 18.932 6.4315h81.277c7.035-.0072 13.802-2.3065 18.932-6.4315 5.129-4.125 8.235-9.767 8.688-15.7818z" fill="#1b3c47"/><path d="m357.599 58.5353h-41.34c-.464 0-.91-.1582-1.238-.4396-.329-.2815-.513-.6633-.513-1.0613 0-.3981.184-.7799.513-1.0613.328-.2815.774-.4396 1.238-.4396h41.34c.464 0 .91.1581 1.238.4396.329.2814.513.6632.513 1.0613 0 .398-.184.7798-.513 1.0613-.328.2814-.774.4396-1.238.4396z" fill="#1b3c47"/><path d="m364.612 58.5353c-.114.0091-.229.0091-.343 0-.113-.0189-.223-.047-.329-.0841-.105-.0388-.206-.0849-.301-.1381-.097-.0538-.186-.1162-.267-.1861-.164-.139-.294-.3045-.383-.4869s-.134-.3781-.134-.5757c0-.1977.045-.3933.134-.5757s.219-.3479.383-.487c.081-.0698.17-.1322.267-.1861.094-.0553.195-.1016.301-.1381.106-.037.216-.0652.329-.084.368-.0619.75-.0208 1.089.1172.339.1381.617.3657.794.6495s.242.6086.187.9267-.228.6126-.493.8401c-.081.0699-.17.1323-.267.1861-.095.0532-.196.0993-.301.1381-.106.0371-.217.0652-.329.0841-.112.0088-.225.0088-.337 0z" fill="#1b3c47"/><path d="m113.9 314.59c-9.949.6-20.4242 1.801-29.736 4.971-29.3439 10.002-21.8889 40.77-25.6164 63.47l37.836-3.602 2.6415 110.784c.0439 1.836.9238 3.583 2.4519 4.87 1.528 1.287 3.582 2.011 5.725 2.016h117.607c2.176 0 4.263-.74 5.801-2.059 1.539-1.318 2.403-3.106 2.403-4.971v-18.185c0-86.452 28.027-124.058 28.027-124.058v-33.537z" fill="#fff"/><path d="m261.755 313.089v33.536s-28.027 37.606-28.027 124.059v18.184c0 .925-.213 1.84-.626 2.694-.413.853-1.019 1.629-1.782 2.282s-1.67 1.17-2.667 1.523-2.065.533-3.144.532h-117.606c-1.684.001-3.327-.442-4.706-1.269s-2.427-1.998-3.002-3.354c.899.279 1.847.421 2.803.42h117.607c2.176 0 4.263-.74 5.801-2.059 1.539-1.318 2.403-3.106 2.403-4.971v-18.185c0-86.452 28.027-124.059 28.027-124.059v-29.321z" fill="#cfd2e8"/><path d="m230.519 314.241c-15.113 15.147-37.135 24.963-61.659 24.963-25.034 0-7.434-14.588-22.526-30.084 0 0-6.852 5.175-4.05-2.713 3.581-10.086 47.295-11.623 47.295-11.623s19.31 25.953 40.94 19.457z" fill="#cfd2e8"/><path d="m223.281 498h-115.946c-2.818-.013-5.519-.966-7.5316-2.655-2.0127-1.69-3.1789-3.985-3.2517-6.398l-2.5784-108.444-38.1723 3.632.3083-1.915c.8618-5.241 1.1141-10.806 1.4014-16.762.8828-19.602 1.7937-39.87 25.329-47.891 8.0367-2.743 17.6563-4.352 30.2613-5.073h.078c.665 0 16.409-.6 20.319-15.885.049-.193.142-.376.274-.538.131-.162.299-.3.493-.406.194-.107.41-.179.637-.214.226-.035.459-.031.684.011s.438.122.627.235c.189.112.35.256.474.422.125.166.21.352.25.546.041.194.036.393-.013.586-4.372 17.134-22.421 18.191-23.584 18.245-12.227.696-21.5037 2.245-29.19 4.863-21.4194 7.3-22.2812 26.578-23.122 45.225-.2312 5.067-.4624 10.284-1.1281 15.147l37.4926-3.578 2.6625 111.734c.051 1.628.839 3.177 2.197 4.317 1.359 1.141 3.181 1.784 5.083 1.794h115.946c1.93-.001 3.781-.659 5.146-1.829 1.365-1.169 2.132-2.755 2.134-4.409v-17.476c0-44.841 7.665-76.342 14.097-94.857 7.007-20.178 13.93-29.598 14.224-30.018.259-.318.651-.538 1.095-.614.443-.076.904-.002 1.285.207.382.209.654.536.76.913.106.376.038.774-.19 1.109-.273.372-27.768 38.345-27.768 123.248v17.476c.001 1.215-.277 2.417-.818 3.539-.542 1.122-1.336 2.142-2.337 3.001s-2.19 1.541-3.499 2.006-2.712.705-4.129.706z" fill="#1b3c47"/><path d="m230.099 317.123c-18.057 0-32.532-13.358-32.714-13.532-.314-.295-.477-.684-.456-1.082.022-.398.227-.772.571-1.04.344-.269.798-.409 1.263-.39.464.018.901.194 1.214.489.203.198 21.104 19.439 42.741 9.888.41-.164.877-.185 1.305-.059.428.125.782.387.99.732.207.344.251.744.122 1.115s-.42.686-.813.877c-4.389 1.968-9.269 2.998-14.223 3.002z" fill="#1b3c47"/><path d="m216.015 130.236c-13.093-9.258-29.168-14.877-46.083-16.107-.903-.072-1.821-.138-2.739-.186-1.156-.06-2.326-.102-3.503-.126-.701 0-1.402 0-2.145 0-.742 0-1.436 0-2.144 0-.707 0-1.268 0-1.898.054h-.582c-.638 0-1.275.06-1.913.096h-.287c-.631.042-1.261.084-1.892.138h-.182c-.462.036-.925.078-1.401.126-.869.084-1.731.174-2.586.276l-.595.078c-.477.06-.953.12-1.402.192l-.89.126-1.443.228-.75.126c-.427.072-.847.145-1.268.229l-1.093.21c-.364.066-.701.138-1.086.222l-.883.186c-.161.03-.329.066-.49.108-29.281 6.55-51.5552 25.503-61.0282 49.14-.063.15-.1261.3-.1751.45-2.0775 5.309-3.4868 10.794-4.204 16.36-1.1751 8.986-.5687 18.077 1.7937 26.89.0911.366.1962.726.3013 1.093.1331.492.2802.99.4344 1.482.1821.601.3713 1.201.5675 1.802l2.9568 11.707.8268 3.23 2.4874 9.707 1.8427-.048 1.4013-.042 6.306-.168 60.1664-1.609h.329l17.04-.456 69.815-1.867 4.372-16.618.827-3.14.974-3.704c.112-.433.224-.871.329-1.303.233-.937.444-1.873.63-2.81 3.504-17.11 4.443-35.073-3.005-49.536-5.522-10.812-17.286-19.127-27.733-26.536zm-69.667 88.548-.154.054c.227-1.262.339-2.536.336-3.812.012-1.997-.275-3.986-.855-5.92-.254-.845-.58-1.674-.974-2.48 1.608.207 3.091.862 4.221 1.863s1.844 2.293 2.032 3.676c.187 1.384-.163 2.782-.995 3.978s-2.101 2.124-3.611 2.641z" fill="#b0d7e9"/><path d="m88.9846 250.831-11.0635-27.172c-.1192-.282-.2453-.601-.3644-.883l-.1471-.348c-1.3753-3.408-2.5446-6.875-3.5034-10.386-.1331-.487-.2662-.973-.3853-1.471-.0981-.354-.1962-.733-.2803-1.117-2.4285-9.776-2.9188-19.832-1.4504-29.748v-.114c.7388-4.84 1.9912-9.613 3.7416-14.258.063-.18.1331-.361.2102-.535 4.645-12.196 12.7994-23.194 23.7111-31.98 10.9119-8.785 24.2299-15.074 38.7249-18.288.192-.048.381-.09.568-.126l.89-.186c.336-.078.735-.156 1.135-.228l1.093-.216c.399-.079.841-.157 1.296-.229l.757-.132 1.485-.234.301-.042.645-.09c.42-.066.918-.126 1.401-.192h.246l.364-.048c.869-.102 1.752-.198 2.634-.282.463-.048.946-.096 1.402-.132h.231l1.871-.132h.294c.701-.042 1.324-.078 1.976-.102h.603c.623 0 1.268-.042 1.926-.054h4.373c1.205 0 2.41.066 3.587.132 26.92 1.452 51.092 13.808 66.339 33.902 1.212 1.591 3.335 2.792 5.605 4.058 3.041 1.712 6.187 3.483 7.666 6.532 6.698 13.809 4.904 32.138 1.975 49.914-.133.853-.301 1.802-.518 2.864-.301 1.465-.631 2.9-.995 4.275l-.694 21.697-2.333.234zm-12.9974-70.885v.12c-1.4214 9.558-.9476 19.252 1.4013 28.674.0841.366.1682.708.2593 1.056.1261.493.2452.955.3784 1.423.9315 3.389 2.0681 6.733 3.4052 10.02l.1401.342.3574.871 9.9284 24.477 150.6427-14.667.652-19.032.049-.174c.357-1.362.701-2.797.988-4.256.21-1.027.371-1.927.505-2.744 2.844-17.284 4.61-35.055-1.696-48.029-.981-2.029-3.461-3.422-6.089-4.905-2.515-1.417-5.122-2.875-6.803-5.097-14.714-19.41-37.136-30.87-63.06-32.275-1.121-.054-2.277-.096-3.42-.12-1.401 0-2.802 0-4.204 0-.616 0-1.233.018-1.849.054h-.519l-1.927.096h-.266c-.616.042-1.226.084-1.843.138h-.203c-.441.036-.876.072-1.31.12-.876.084-1.717.174-2.557.27l-.589.078-1.345.18-.603.084-.315.048c-.456.066-.925.144-1.402.222l-.735.121c-.407.072-.806.138-1.198.216l-1.1.21c-.365.066-.701.132-1.016.21l-.897.186h-.077c-.112.018-.222.042-.33.072h-.091c-13.83 3.064-26.537 9.064-36.946 17.447-10.4089 8.383-18.1851 18.878-22.6103 30.516-.063.156-.1121.264-.1471.372v.066c-1.6632 4.436-2.8545 8.991-3.5594 13.61zm67.4948 41.864.638-3.254c.208-1.169.311-2.349.308-3.53.01-1.843-.253-3.679-.785-5.464-.229-.761-.522-1.507-.875-2.233l-1.465-2.954 3.707.468c2.067.259 3.977 1.093 5.434 2.375 1.458 1.282 2.382 2.94 2.629 4.717s-.196 3.575-1.261 5.115c-1.065 1.539-2.692 2.735-4.63 3.403l-.196.072zm4.73-11.161c.242 1.231.38 2.475.413 3.722.186-.474.281-.971.28-1.471.003-.789-.236-1.565-.693-2.251z" fill="#1b3c47"/><path d="m125.181 310.867.337-.336c-.103.228-.201.456-.295.684-.035-.228-.042-.348-.042-.348z" fill="#c0e5f2"/><path d="m88.5431 199.602c-.4646 0-.9101-.158-1.2386-.439-.3285-.282-.5131-.664-.5131-1.062v-17.993c0-.398.1846-.779.5131-1.061.3285-.281.774-.439 1.2386-.439s.9101.158 1.2386.439c.3285.282.5131.663.5131 1.061v18.011c-.0056.395-.1925.772-.5205 1.05-.3279.278-.7702.433-1.2312.433z" fill="#1b3c47"/><path d="m88.5431 173.384c-.4646 0-.9101-.158-1.2386-.439-.3285-.282-.5131-.663-.5131-1.061v-6.731c0-.398.1846-.779.5131-1.061.3285-.281.774-.439 1.2386-.439s.9101.158 1.2386.439c.3285.282.5131.663.5131 1.061v6.731c0 .398-.1846.779-.5131 1.061-.3285.281-.774.439-1.2386.439z" fill="#1b3c47"/><path d="m172.301 149.796c9.436 1.731 18.297 5.261 25.924 10.326 2.144 1.417 4.239-1.711 2.102-3.109-7.938-5.243-17.146-8.897-26.947-10.693-2.642-.48-3.763 3.002-1.121 3.476z" fill="#fff"/><path d="m265.139 221.714v4.412c0 3.344-1.55 6.551-4.31 8.915-2.759 2.365-6.502 3.693-10.404 3.693h-179.6578c-.1377.006-.2757.006-.4134 0-2.7816-.057-5.4856-.797-7.7914-2.131-2.0053-1.155-3.648-2.714-4.7833-4.541-1.1352-1.827-1.7279-3.866-1.7259-5.936v-4.412c0-3.344 1.5502-6.551 4.3097-8.915 2.7594-2.365 6.5019-3.693 10.4043-3.693h74.9078c.58 1.934.867 3.923.855 5.92.003 1.276-.109 2.55-.336 3.812l.154-.054c1.054-.36 1.998-.922 2.758-1.644.76-.723 1.316-1.585 1.624-2.521s.361-1.92.154-2.876-.668-1.858-1.348-2.637h100.896c3.901.002 7.642 1.331 10.4 3.695s4.307 5.57 4.307 8.913z" fill="#f4ceae"/><path d="m263.492 224.751c.003 1.946-.443 3.873-1.311 5.67-.868 1.798-2.141 3.431-3.747 4.807-.654.558-1.356 1.072-2.102 1.537.689-2.945.691-5.978.006-8.923-.685-2.946-2.044-5.746-3.998-8.24-1.954-2.493-4.464-4.631-7.387-6.289s-6.199-2.804-9.641-3.373h10.916c4.581.005 8.972 1.568 12.209 4.345s5.055 6.541 5.055 10.466z" fill="#cc6f65" opacity=".5"/><path d="m71.7131 214.443c-3.9039 3.34-6.1249 7.857-6.1864 12.583-.0616 4.726 2.0411 9.285 5.8571 12.698-4.3845-.43-8.4109-2.28-11.2542-5.172s-4.288-6.606-4.038-10.381c.2499-3.776 2.1756-7.326 5.3823-9.924 3.2068-2.598 7.4517-4.046 11.8647-4.048h6.1659c-2.9302.906-5.5907 2.355-7.7914 4.244z" fill="#fcdfca"/><path d="m247.853 240.535h-174.5143c-1.2202-.002-2.4376-.1-3.6365-.294-4.304-.719-8.1995-2.66-11.0574-5.51-2.858-2.85-4.5115-6.442-4.6936-10.196 0-.204 0-.414 0-.6.0019-4.407 2.0458-8.633 5.6826-11.749 3.6367-3.116 8.5687-4.868 13.7119-4.869h174.5073c5.141.006 10.069 1.759 13.704 4.875 3.634 3.115 5.678 7.338 5.684 11.743-.004 4.405-2.048 8.628-5.683 11.743s-8.564 4.866-13.705 4.869zm-174.5143-29.628c-1.9955.001-3.9712.338-5.8143.994-1.8431.655-3.5174 1.615-4.9274 2.825-1.41 1.209-2.528 2.646-3.2902 4.226-.7621 1.58-1.1534 3.273-1.1516 4.983v.486c.1432 2.938 1.4382 5.75 3.6758 7.979 2.2375 2.23 5.287 3.749 8.6559 4.311.9373.156 1.8899.234 2.8448.234h174.5213c3.972-.073 7.752-1.476 10.53-3.909 2.779-2.432 4.335-5.7 4.335-9.104s-1.556-6.672-4.335-9.104c-2.778-2.433-6.558-3.836-10.53-3.909h-95.031c.559 1.904.296 3.917-.741 5.668-1.036 1.75-2.776 3.121-4.899 3.86l-.196.072-3.504 1.303.638-3.254c.208-1.169.311-2.349.308-3.53.004-1.382-.142-2.761-.434-4.119zm74.8733-.258c.242 1.231.38 2.475.413 3.722.186-.474.281-.971.28-1.471.003-.789-.237-1.565-.693-2.251z" fill="#1b3c47"/><path d="m220.759 147.167c-7.635-6.559-16.708-11.761-26.697-15.306-9.988-3.545-20.696-5.364-31.508-5.353h-.406c-21.764.083-42.603 7.551-57.955 20.77-15.3511 13.219-23.9641 31.112-23.9528 49.761v49.373c.0291 16.524 6.6498 32.543 18.7639 45.4l.035.036c15.0989 16.065 37.9479 26.506 63.5149 26.506 45.467 0 82.322-33.693 82.322-72.644v-48.665c.013-9.266-2.111-18.442-6.25-27.001-4.139-8.56-10.211-16.335-17.867-22.877zm-69.752 65.307c0 1.268-.444 2.506-1.275 3.555-.83 1.049-2.009 1.86-3.384 2.329l-.154.054c.227-1.262.339-2.536.336-3.813.012-1.996-.275-3.986-.855-5.919-.254-.846-.58-1.674-.973-2.48 1.753.226 3.354.983 4.511 2.134 1.157 1.152 1.794 2.621 1.794 4.14z" fill="#f4ceae"/><path d="m244.672 197.957v48.672c0 38.957-36.848 72.643-82.314 72.643-1.793 0-3.578-.05-5.353-.15 42.972-2.359 76.968-35.079 76.968-72.499v-48.666c-.002-17.913-7.957-35.154-22.25-48.226-14.294-13.071-33.857-20.994-54.718-22.16 1.771-.096 3.555-.144 5.353-.144 21.831 0 42.768 7.431 58.205 20.658s24.109 31.166 24.109 49.872z" fill="#cc6f65" opacity=".5"/><path d="m151.442 318.594c-1.647.132-3.307-1.609-4.975-1.609-36.652 0-66.3599-35.235-66.3599-73.202v-47.429c0-37.967 29.7079-68.741 66.3599-68.741 1.668 0 3.328.06 4.975.192-34.333 2.63-66.4302 31.117-66.4302 67.349l.3503 53.768c0 36.25 31.7609 67.042 66.0799 69.672z" fill="#fceade"/><path d="m94.6599 291.674c-.3346-.001-.6644-.07-.9617-.201-.2974-.132-.5538-.322-.7479-.556-1.4013-1.657-2.6906-3.386-3.9027-5.133-.1465-.203-.2442-.43-.2875-.666-.0432-.236-.0311-.478.0356-.71.0668-.232.1868-.451.3531-.643.1664-.192.3757-.353.6158-.475.24-.122.506-.202.7825-.235.2764-.033.5577-.019.8276.043.2698.061.5226.167.7439.313.2212.146.4062.328.5444.536 1.1491 1.663 2.3963 3.302 3.7066 4.875.1609.193.2758.411.3383.641.0624.231.0711.47.0256.704-.0456.234-.1445.457-.2911.658s-.3381.375-.5633.512c-.3557.218-.7819.336-1.2192.337z" fill="#1b3c47"/><path d="m85.4182 277.271c-.4182 0-.8269-.107-1.1739-.307s-.6165-.484-.774-.816c-4.0807-8.638-6.1743-17.871-6.1658-27.19v-51.487c.0047-16.945 6.9474-33.351 19.6186-46.36 3.1019-3.191 6.5229-6.143 10.2229-8.825l.224-.162c15.219-10.972 34.469-16.988 54.358-16.991h.469c22.309.105 43.662 7.773 59.393 21.328 15.73 13.555 24.558 31.894 24.554 51.01v51.487c.006 5.492-.718 10.966-2.158 16.318-.142.45-.483.836-.95 1.075-.468.24-1.026.315-1.556.209s-.992-.384-1.288-.776-.403-.867-.298-1.325c1.365-5.084 2.052-10.284 2.046-15.501v-51.487c.004-18.169-8.39-35.6-23.346-48.48-14.955-12.88-35.256-20.161-56.46-20.249h-.406c-18.927.006-37.241 5.748-51.702 16.209l-.12.084c-3.528 2.553-6.79 5.365-9.746 8.405-12.0443 12.362-18.6449 27.952-18.6515 44.055v51.487c.003 8.847 1.9916 17.612 5.8575 25.816.1298.273.1791.57.1437.863-.0355.294-.1547.576-.3471.821s-.4521.445-.7563.584-.6435.211-.9881.211z" fill="#1b3c47"/><path d="m70.6551 230.185c-.2269-.002-.4498-.052-.6495-.144s-.3703-.225-.4971-.386-.2061-.346-.2309-.54c-.0248-.193.0055-.388.0883-.569.7186-1.653.9078-3.441.5481-5.177-.3598-1.737-1.2555-3.359-2.5941-4.699-.131-.117-.2331-.256-.3-.407-.0669-.152-.0973-.313-.0894-.475s.054-.321.1356-.467c.0815-.147.1967-.277.3387-.384.142-.108.3079-.189.4876-.24.1796-.05.3694-.069.5579-.055.1885.013.3717.06.5387.136s.3143.181.4329.307c1.6708 1.673 2.7889 3.699 3.2386 5.867.4496 2.168.2145 4.4-.6811 6.464-.1029.229-.2849.425-.5216.562-.2368.138-.5168.21-.8027.207z" fill="#1b3c47"/><path d="m62.9618 225.808c-.2602 0-.5153-.062-.7367-.179-.2214-.118-.4003-.285-.5167-.485-.1164-.199-.1656-.422-.1423-.645.0234-.222.1185-.434.2747-.612.9678-1.092 2.2554-1.944 3.7321-2.471 1.4767-.528 3.0899-.711 4.6759-.531.184.022.3611.075.5213.156.1601.081.3002.187.4121.315.1119.127.1935.271.2401.426.0466.154.0574.314.0316.472s-.0875.309-.1818.447c-.0942.137-.219.257-.3674.353-.1483.096-.3172.165-.4971.205s-.3672.05-.5512.028c-1.0922-.12-2.2018.008-3.2184.371-1.0166.362-1.9048.946-2.5761 1.694-.1313.142-.2984.257-.4889.336-.1906.079-.3995.12-.6112.12z" fill="#1b3c47"/><path d="m251.714 230.323c-.283 0-.56-.073-.794-.21s-.414-.332-.516-.559c-.9-2.062-1.139-4.293-.693-6.462.446-2.168 1.561-4.195 3.229-5.869.119-.126.266-.231.433-.307s.35-.122.539-.136c.188-.014.378.005.558.056.18.05.345.132.487.239s.258.237.339.384c.082.146.128.305.136.467s-.023.323-.09.475c-.067.151-.169.29-.3.407-1.339 1.339-2.236 2.961-2.597 4.698s-.173 3.524.544 5.178c.138.291.137.618-.004.909-.14.29-.408.522-.745.646-.168.056-.346.085-.526.084z" fill="#1b3c47"/><path d="m259.407 225.946c-.218.001-.434-.042-.63-.125-.196-.084-.366-.205-.498-.355-.67-.749-1.558-1.334-2.575-1.698-1.016-.363-2.126-.492-3.219-.373-.372.044-.749-.04-1.048-.233-.3-.194-.498-.482-.55-.8s.046-.642.272-.898c.226-.257.562-.426.934-.471 1.585-.176 3.197.009 4.673.536s2.764 1.377 3.735 2.466c.156.178.251.39.274.613.023.222-.026.445-.142.644-.117.2-.295.368-.517.485-.221.117-.476.179-.737.179z" fill="#1b3c47"/><path d="m119.33 303.915.393-.39c-.119.264-.238.528-.343.798-.043-.264-.05-.408-.05-.408z" fill="#c0e5f2"/><path d="m169.883 235.138c.025 2.005-.881 3.938-2.518 5.372s-3.871 2.253-6.212 2.276c-4.834 0-8.744-4.839-8.744-9.059z" fill="#f4ceae"/><path d="m225.117 166.3c-6.477-10.926-16.16-20.221-28.098-26.97-11.939-6.75-25.721-10.721-39.993-11.525-1.8.102-3.58.252-5.353.444 15.437 1.723 29.983 7.177 41.935 15.724l2.712 2.023c.973.756 1.933 1.525 2.858 2.323 5.658 4.842 10.463 10.363 14.266 16.39-18.785-4.52-30.521-16.912-30.521-16.912-14.714 10.807.7 16.21.7 16.21l-14.713 4.803c-32.231 6.003-33.632-24.015-33.632-24.015l-22.31 12.752-21.8324 8.261c23.1224 3.002 40.6384-14.409 40.6384-14.409 0 6.004-.749 15.111 18.218 21.613 21.02 7.205 42.039-9.005 42.039-9.005-11.21-3.002-9.108-9.006-9.108-9.606 9.165 9.702 25.791 13.352 32.966 14.529 4.895 9.184 7.421 19.165 7.406 29.261v48.672c0 35.853-31.207 67.564-71.622 72.043 1.773.198 3.553.348 5.353.444 42.972-2.359 76.996-35.793 76.996-73.202v-47.975c.077-10.77-2.725-23.378-8.688-32.737" fill="#ffb594"/><path d="m152.087 221.233 9.108-11.407-7.707-7.804s-11.211-2.402-11.911-1.201c-.701 1.201-4.905 13.808-4.905 13.808l6.306 11.407z" fill="#f4ceae"/><path d="m211.909 218.934c0-8.124-7.685-14.709-17.166-14.709s-17.166 6.585-17.166 14.709v5.001c0 8.123 7.685 14.709 17.166 14.709s17.166-6.586 17.166-14.709z" fill="#fff"/><path d="m194.75 229.332c4.636 0 8.394-3.22 8.394-7.192s-3.758-7.193-8.394-7.193-8.394 3.221-8.394 7.193 3.758 7.192 8.394 7.192z" fill="#274b5b"/><path d="m192.347 219.06c3.312 0 5.997-2.301 5.997-5.139s-2.685-5.139-5.997-5.139c-3.313 0-5.998 2.301-5.998 5.139s2.685 5.139 5.998 5.139z" fill="#fff"/><path d="m196.607 227.825c1.145 0 2.074-.795 2.074-1.777 0-.981-.929-1.777-2.074-1.777-1.146 0-2.074.796-2.074 1.777 0 .982.928 1.777 2.074 1.777z" fill="#fff"/><path d="m144.645 218.934c0-8.124-7.685-14.709-17.166-14.709s-17.166 6.585-17.166 14.709v5.001c0 8.123 7.685 14.709 17.166 14.709s17.166-6.586 17.166-14.709z" fill="#fff"/><path d="m127.479 241.147c-5.017 0-9.829-1.708-13.377-4.747-3.548-3.04-5.541-7.163-5.541-11.462 0-.399.185-.78.513-1.062.329-.281.774-.439 1.239-.439.464 0 .91.158 1.238.439.329.282.513.663.513 1.062 0 3.502 1.625 6.862 4.515 9.339 2.891 2.477 6.812 3.868 10.9 3.868s8.009-1.391 10.9-3.868 4.515-5.837 4.515-9.339c0-.399.184-.78.513-1.062.328-.281.774-.439 1.238-.439.465 0 .911.158 1.239.439.329.282.513.663.513 1.062 0 4.299-1.993 8.422-5.541 11.462-3.548 3.039-8.36 4.747-13.377 4.747z" fill="#1b3c47"/><path d="m194.743 241.147c-5.017 0-9.829-1.708-13.377-4.747-3.548-3.04-5.541-7.163-5.541-11.462 0-.399.185-.78.513-1.062.329-.281.774-.439 1.239-.439.464 0 .91.158 1.238.439.329.282.513.663.513 1.062 0 3.502 1.624 6.862 4.515 9.339s6.812 3.868 10.9 3.868 8.009-1.391 10.9-3.868 4.515-5.837 4.515-9.339c0-.399.184-.78.513-1.062.328-.281.774-.439 1.238-.439.465 0 .91.158 1.239.439.328.282.513.663.513 1.062 0 4.299-1.993 8.422-5.541 11.462-3.548 3.039-8.36 4.747-13.377 4.747z" fill="#1b3c47"/><path d="m126.785 229.332c4.636 0 8.394-3.22 8.394-7.192s-3.758-7.193-8.394-7.193c-4.635 0-8.394 3.221-8.394 7.193s3.759 7.192 8.394 7.192z" fill="#274b5b"/><path d="m124.382 219.06c3.313 0 5.998-2.301 5.998-5.139s-2.685-5.139-5.998-5.139c-3.312 0-5.997 2.301-5.997 5.139s2.685 5.139 5.997 5.139z" fill="#fff"/><path d="m128.642 227.825c1.146 0 2.074-.795 2.074-1.777 0-.981-.928-1.777-2.074-1.777-1.145 0-2.074.796-2.074 1.777 0 .982.929 1.777 2.074 1.777z" fill="#fff"/><path d="m86.2239 166 31.8801-10.146c10.678-5.72 20.251-12.83 28.377-21.073l-9.599 7.205c5.066-2.486-6.446 4.202-1.611 1.801-5.606 15.609 18.917 37.222 47.995 20.712 0 0-10.356-7.252-.252-15.915 0 0 23.374 26.121 70.319 13.514 0 0-5.606-31.219-38.537-38.423l23.122-7.205s-41.339-34.8208-84.08-11.407v.06c-1.344-1.155-3.046-1.957-4.905-2.311 0 0 0 9.24-5.395 12.325 0 0-30.563-20.544-68.3216 2.054 0 0 17.3836 1.537 17.3836 8.729 0 0-28.7694 8.729-28.7694 40.056l14.714-1.201" fill="#b0d7e9"/><path d="m156.991 108.365s27.326-18.0106 64.461 5.404c0 0 3.504 1.801 2.803 1.801s-30.829 9.605-30.829 9.605 45.543 1.802 52.55 36.622h6.306s-5.606-33.62-39.238-37.822l25.224-7.205s-32.931-30.0177-77.774-15.609l-5.605 1.801z" fill="#e1f4f9"/><path d="m142.277 115.57s-31.53-12.008-56.0531 0c0 0 12.612 2.401 9.8094 13.208 0 0-31.53 10.806-27.326 36.622l-6.306.6s0-28.217 28.0266-40.825l-17.5166-8.405s35.0337-20.4119 63.7607-3.602z" fill="#e1f4f9"/><path d="m78.5166 167.801-17.5167-.03v-1.801c0-16.81 8.1628-27.25 15.0083-33.056 3.9256-3.353 8.4982-6.099 13.5158-8.117-1.6675-3.764-11.575-5.499-15.2534-5.823l-5.6054-.499 4.6244-2.767c20.1301-12.044 38.2844-11.972 49.9714-9.786 6.919 1.275 13.505 3.629 19.43 6.946 2.767-2.6 3.412-7.979 3.412-10.044v-2.227l2.543.462c9.697 1.801 11.743 12.836 11.827 13.31.083.473-.057.954-.389 1.339-.331.384-.828.64-1.38.711s-1.114-.049-1.563-.333c-.448-.284-.747-.71-.829-1.183 0-.144-1.318-6.94-6.187-9.504-.407 3.29-1.752 8.736-6.145 11.245l-1.268.727-1.178-.817c-5.811-3.482-12.392-5.912-19.338-7.138-14.216-2.618-28.3488-.33-42.0399 6.784 5.7455 1.165 13.8662 3.848 13.8662 9.72v1.273l-1.4013.426c-5.1543 1.849-9.8257 4.562-13.7401 7.979-8.6041 7.354-13.1725 16.96-13.5929 28.577h13.3127c.5574 0 1.0921.19 1.4863.527.3942.338.6157.796.6157 1.274s-.2215.936-.6157 1.274c-.3942.337-.9289.527-1.4863.527z" fill="#1b3c47"/><path d="m140.876 140.785s-7.007 34.22 38.536 22.213l2.243 2.402s-9.396 7.678-20.46 6.003c-16.115-2.401-35.734-16.81-20.319-30.618z" fill="#54b9d3"/><path d="m215.805 132.158c2.216.878 4.279 2.016 6.131 3.38 1.401 1.074 2.102 1.957 1.801 2.299-.596.696-4.604-.949-9.466-2.912-4.863-1.963-8.871-3.602-8.612-4.442.134-.403 1.353-.511 3.216-.259 2.404.366 4.736 1.017 6.93 1.934z" fill="#e5f5fa"/><path d="m233.882 143.673c1.23 1.388 2.19 2.937 2.845 4.586.476 1.261.532 2.138.098 2.348s-1.268-.3-2.291-1.261-2.214-2.353-3.503-3.824c-1.29-1.471-2.509-2.744-3.392-3.753-.883-1.008-1.366-1.747-1.079-2.101.288-.354 1.325-.21 2.726.456 1.8.9 3.365 2.108 4.596 3.549z" fill="#e5f5fa"/><path d="m240.749 154.077c.56 1.303 0 2.533-.953 2.689-.953.157-1.955-.6-2.403-1.627-.449-1.026-.267-2.149.588-2.575s2.207.21 2.768 1.513z" fill="#e5f5fa"/><path d="m201.497 118.055c2.208-.75 4.289-.558 4.562.252.273.811-1.205 1.909-3.244 2.6-2.039.69-3.994.768-4.443 0-.448-.769.911-2.101 3.125-2.852z" fill="#e5f5fa"/><path d="m211.272 115.456c1.205-.301 2.403.114 2.683.924.281.811-.476 1.717-1.674 2.017-1.198.301-2.404-.114-2.684-.924-.28-.811.477-1.717 1.675-2.017z" fill="#e5f5fa"/><path d="m174.108 104.127c3.149-.507 6.369-.6 9.551-.276 2.431.282 3.874.798 3.832 1.2-.105.871-5.878.997-12.745 2.09-6.866 1.092-12.339 2.653-12.794 1.867-.203-.373.939-1.285 3.104-2.282 2.847-1.252 5.899-2.129 9.052-2.599z" fill="#e5f5fa"/><path d="m193.958 104.757c.324.111.602.301.802.546.2.244.312.534.323.832.011.299-.08.593-.262.848-.181.255-.445.459-.76.588-.314.128-.666.175-1.011.135-.345-.039-.67-.165-.933-.36-.264-.195-.455-.452-.551-.739s-.093-.592.01-.877c.166-.399.511-.726.957-.908s.959-.205 1.425-.065z" fill="#e5f5fa"/><path d="m145.872 151.699c.548 1.599 1.29 3.144 2.214 4.611.7 1.123 1.275 1.801 1.093 1.963s-1.065-.282-2.102-1.344c-1.338-1.415-2.323-3.05-2.894-4.803-.576-1.706-.903-3.467-.974-5.242-.056-1.344.056-2.185.301-2.209.246-.024.575.769.946 2.059.372 1.291.764 3.086 1.416 4.965z" fill="#6ac2d9"/><path d="m162.372 161.93c2.439.006 4.873-.175 7.273-.541 1.878-.258 3.069-.414 3.146-.204s-.981.715-2.838 1.255c-2.453.707-5.028 1.054-7.616 1.026-2.627-.017-5.212-.564-7.546-1.596-1.773-.829-2.592-1.657-2.452-1.802.14-.144 1.205.301 2.964.817 2.279.66 4.664 1.012 7.069 1.045z" fill="#6ac2d9"/><path d="m214.796 196.318c-.388.001-.769-.09-1.1-.264-20.277-10.65-39.006-.468-39.791-.03-.463.216-1.005.275-1.516.165-.512-.11-.957-.381-1.246-.759-.29-.378-.403-.835-.317-1.281.086-.447.365-.849.781-1.127.876-.492 21.721-11.899 44.289-.03.391.205.694.514.861.88.168.366.191.768.066 1.147-.125.378-.39.711-.756.947-.366.237-.812.365-1.271.364z" fill="#1b3c47"/><path d="m149.634 196.318c-.388.001-.769-.09-1.1-.264-20.277-10.65-39.006-.468-39.791-.03-.463.216-1.004.275-1.516.165s-.957-.381-1.246-.759c-.29-.378-.403-.835-.317-1.281.086-.447.365-.849.781-1.127.876-.492 21.721-11.899 44.289-.03.392.205.694.514.861.88.168.366.191.768.066 1.147-.124.378-.39.711-.756.947-.366.237-.812.365-1.271.364z" fill="#1b3c47"/><g fill="#fff" opacity=".5"><path d="m225.719 204.051-52.059 31.819v-18.119l26.73-16.33h18.568c1.285-.024 2.56.199 3.731.654 1.17.456 2.206 1.131 3.03 1.976z" opacity=".5"/><path d="m227.058 211.766v9.767l-36.799 22.514h-8.492c-1.878.014-3.715-.473-5.255-1.393z" opacity=".5"/></g><path d="m218.993 201.121h-39.777c-3.761 0-6.81 2.613-6.81 5.836v30.954c0 3.223 3.049 5.836 6.81 5.836h39.777c3.761 0 6.811-2.613 6.811-5.836v-30.954c0-3.223-3.05-5.836-6.811-5.836z" fill="#fff" opacity=".3"/><path d="m143.321 201.722h-39.777c-3.761 0-6.8101 2.612-6.8101 5.835v30.955c0 3.223 3.0491 5.835 6.8101 5.835h39.777c3.761 0 6.811-2.612 6.811-5.835v-30.955c0-3.223-3.05-5.835-6.811-5.835z" fill="#fff" opacity=".3"/><path d="m100.104 157.649c7.749-2.227 13.726-4.767 13.978-4.371.253.397-5.472 3.542-13.41 5.824-7.9389 2.281-14.7144 2.738-14.7844 2.341-.0701-.396 6.4741-1.531 14.2164-3.794z" fill="#6ac2d9"/><path d="m122.126 147.335c2.207-1.519 4.204-2.564 4.533-2.24.33.325-1.17 1.892-3.412 3.434-2.242 1.543-4.358 2.462-4.645 2.12-.288-.342 1.317-1.759 3.524-3.314z" fill="#6ac2d9"/><path d="m135.768 136.744c3.503-2.653 6.867-4.202 7.133-3.872s-2.537 2.438-5.949 5.025c-3.412 2.588-6.18 4.725-6.558 4.437s1.857-2.936 5.374-5.59z" fill="#6ac2d9"/><path d="m88.6973 157.085c5.8715-1.087 10.51-2.57 10.6921-2.162.1822.409-4.204 2.528-10.3138 3.657-6.1098 1.128-11.1686.774-11.1476.372.0211-.402 4.9047-.751 10.7693-1.867z" fill="#6ac2d9"/><path d="m161.195 216.388v35.464s-11.133-4.509-11.133-13.058.623-21.763.623-21.763l8.527-1.945c.234-.055.479-.063.716-.023s.461.127.653.253.347.288.454.474c.106.186.161.391.16.598z" fill="#fceade" opacity=".5"/><path d="m171.705 219.432c-.221 0-.441-.031-.651-.09-11.393-3.194-19.129-.12-19.206-.084-.249.102-.519.161-.795.174-.276.012-.553-.022-.813-.101-.261-.079-.501-.201-.706-.359-.206-.158-.373-.35-.492-.563-.119-.214-.188-.446-.203-.682-.014-.237.026-.473.118-.697.092-.223.234-.428.419-.605.185-.176.408-.319.658-.421.378-.15 9.353-3.728 22.323-.084.474.134.878.408 1.138.773s.36.798.281 1.221c-.078.423-.33.807-.709 1.086-.38.278-.862.431-1.362.432z" fill="#1b3c47"/><path d="m161.153 253.052c-2.569-.019-5.025-.911-6.827-2.48-1.803-1.569-2.805-3.687-2.786-5.889 0-.477.221-.935.616-1.273.394-.338.929-.528 1.486-.528s1.092.19 1.486.528c.395.338.616.796.616 1.273-.026.623.094 1.243.354 1.825.26.581.654 1.112 1.159 1.56.504.448 1.109.805 1.778 1.048s1.388.369 2.115.369c.726 0 1.446-.126 2.114-.369.669-.243 1.274-.6 1.779-1.048.504-.448.898-.979 1.158-1.56.26-.582.38-1.202.354-1.825 0-.477.222-.935.616-1.273s.929-.528 1.486-.528c.558 0 1.092.19 1.487.528.394.338.615.796.615 1.273.019 2.201-.982 4.318-2.783 5.887s-4.255 2.462-6.823 2.482z" fill="#1b3c47"/><g fill="#fff" opacity=".3"><path d="m150.062 204.051-51.7306 31.819v-18.119l26.5486-16.33h18.448c1.281-.025 2.552.199 3.718.654 1.166.456 2.197 1.131 3.016 1.976z" opacity=".3"/><path d="m151.386 211.766v9.767l-36.561 22.514h-8.408c-1.869.013-3.696-.474-5.227-1.393z" opacity=".3"/></g><path d="m143.328 245.248h-39.433c-2.271-.002-4.4473-.775-6.0526-2.151-1.6053-1.375-2.508-3.24-2.5098-5.186v-30.954c.0018-1.946.9045-3.811 2.5098-5.186 1.6053-1.376 3.7816-2.149 6.0526-2.151h39.433c2.271.002 4.449.775 6.055 2.15 1.606 1.376 2.511 3.241 2.514 5.187v30.954c-.003 1.946-.908 3.811-2.514 5.187-1.606 1.375-3.784 2.148-6.055 2.15zm-39.433-42.626c-1.341.002-2.627.459-3.575 1.271-.9487.813-1.4822 1.915-1.4841 3.064v30.954c.0019 1.149.5354 2.251 1.4841 3.064.948.812 2.234 1.269 3.575 1.271h39.433c1.342-.002 2.628-.459 3.578-1.271.949-.812 1.484-1.914 1.488-3.064v-30.954c-.004-1.15-.539-2.252-1.488-3.064-.95-.812-2.236-1.269-3.578-1.271z" fill="#1b3c47"/><path d="m161.027 172.16c-.511 0-1.016 0-1.52-.03-6.312-.234-12.328-2.359-16.999-6.004-8.043-6.268-11.441-16.426-7.707-23.126.11-.224.272-.427.475-.596.204-.17.446-.302.711-.389s.548-.127.831-.118c.284.009.563.067.819.171.257.104.486.251.675.433.188.182.332.395.421.626.09.23.125.474.101.717-.023.242-.103.478-.235.693-2.537 4.593-.701 13.13 6.768 18.923 4.982 3.885 15.87 8.934 33.849.601-1.971-2.007-3.158-4.493-3.391-7.108-.196-3.374 1.499-6.604 5.031-9.654l1.667-1.411 1.458 1.633c.056.06 5.801 6.346 17.005 11.041 14.518 6.087 31.067 6.862 49.208 2.317-1.64-6.208-9.543-29.508-36.617-35.421l-6.6-1.447 26.219-8.165c-6.923-4.993-14.649-9.106-22.94-12.212-20.081-7.372-38.922-6.3694-55.983 3.002-.471.258-1.041.346-1.586.243-.546-.102-1.021-.386-1.322-.789s-.403-.892-.284-1.359c.12-.467.451-.875.921-1.133 18.092-9.9055 38.852-11.0162 60.033-3.212 9.789 3.631 18.791 8.653 26.626 14.853l2.375 2-20.466 6.333c11.322 3.807 20.578 11.035 26.989 21.157 3.415 5.341 5.829 11.109 7.154 17.092l.273 1.531-1.723.463c-24.916 6.694-43.295 2.533-54.323-2.132-6.22-2.594-11.854-6.112-16.641-10.392-1.518 1.525-2.335 3.471-2.298 5.475.21 3.645 3.861 6.292 3.896 6.322l2.319 1.627-2.572 1.315c-7.952 4.076-15.554 6.13-22.617 6.13z" fill="#1b3c47"/><path d="m85.0188 167.177c-.5575.008-1.0958-.174-1.4966-.507-.4008-.332-.6311-.787-.6404-1.264-.0093-.478.2032-.939.5908-1.283.3877-.343.9186-.54 1.4761-.548 30.3603-.937 59.8723-29.562 60.1663-29.85.178-.188.398-.344.647-.457.25-.114.523-.183.805-.204.281-.02.564.007.833.082.268.075.516.196.729.355s.386.353.509.571c.124.217.195.454.209.696.014.241-.028.483-.125.71-.098.227-.247.435-.44.612-5.872 5.533-12.324 10.594-19.275 15.117-15.569 10.176-30.3392 15.549-43.9041 15.97z" fill="#1b3c47"/><g fill="#fff"><path d="m88.6412 186.664c.4805-2.263 1.4449-4.43 2.8447-6.393 1.1351-1.495 2.2562-2.228 2.9288-1.982.6726.247.8198 1.411.6516 3.062-.1681 1.651-.6166 3.825-1.1561 6.196s-1.065 4.515-1.6325 6.106c-.5676 1.591-1.1912 2.617-1.9409 2.635s-1.4503-1.026-1.8497-2.779c-.4412-2.27-.3889-4.591.1541-6.845z"/><path d="m107.447 170.215c4.617-1.429 8.723-2.042 9.389-.901s-2.613 3.686-7.56 5.223-9.3751 1.381-9.7114.156c-.3363-1.224 3.2654-3.032 7.8824-4.478z"/><path d="m123.492 162.77c1.367-1.075 3.265-1.351 4.372-.51 1.108.84.848 2.647-.735 3.896-1.584 1.249-3.714 1.321-4.59.306-.875-1.014-.406-2.617.953-3.692z"/><path d="m75.2094 145.45c.6463-1.146 1.4687-2.212 2.4454-3.17.8009-.78 1.7282-1.457 2.7536-2.011 1.7727-.931 3.167-1.039 3.5874-.541s-.0631 1.525-.8969 2.828c-.4063.636-.8968 1.381-1.4433 2.215-.5465.835-1.065 1.711-1.6046 2.66-.5395.948-.9879 1.885-1.4013 2.743l-1.1 2.354c-.7007 1.369-1.2472 2.341-2.0109 2.371-.7638.03-1.4925-.96-1.7587-2.731-.1425-1.032-.1094-2.075.0981-3.098.2531-1.252.7009-2.47 1.3312-3.62z"/><path d="m92.3828 134.955c1.2066-.394 2.4794-.619 3.7696-.666 1.093 0 1.9688.21 2.3402.762.3714.553.1471 1.333-.6166 2.138-1.0083.943-2.2692 1.662-3.6742 2.095s-2.9118.567-4.3905.39c-1.1841-.198-1.9478-.684-2.1019-1.309-.1542-.624.3923-1.272 1.2331-1.861 1.041-.673 2.203-1.196 3.4403-1.549z"/><path d="m104.995 114.165c1.497-.179 3.022-.015 4.421.474 1.107.426 1.724 1.051 1.675 1.675-.05.624-.736 1.171-1.717 1.573-2.402.863-5.038 1.134-7.609.78-1.065-.198-1.8711-.6-2.1023-1.2-.2312-.601.2032-1.327 1.1633-1.969 1.226-.755 2.665-1.215 4.169-1.333z"/><path d="m92.7401 257.555c.5925 1.494 1.0355 3.029 1.3242 4.587.1962 1.261.0841 2.215-.5605 2.539-.6446.325-1.7026-.078-2.8027-1.092-1.3941-1.338-2.4318-2.919-3.0408-4.635-.6672-1.701-.8897-3.507-.6517-5.289.2383-1.393.8338-2.246 1.5695-2.3s1.4784.661 2.1791 1.802c.8009 1.413 1.4641 2.881 1.9829 4.388z"/></g><path d="m218.993 245.248h-39.777c-2.27-.002-4.447-.775-6.052-2.151-1.605-1.375-2.508-3.24-2.51-5.186v-30.954c.002-1.946.905-3.811 2.51-5.186 1.605-1.376 3.782-2.149 6.052-2.151h39.777c2.27.002 4.447.775 6.052 2.151 1.606 1.375 2.508 3.24 2.51 5.186v30.954c-.002 1.946-.904 3.811-2.51 5.186-1.605 1.376-3.782 2.149-6.052 2.151zm-39.777-42.626c-1.341.002-2.627.459-3.575 1.271-.948.813-1.482 1.915-1.484 3.064v30.954c.002 1.149.536 2.251 1.484 3.064.948.812 2.234 1.269 3.575 1.271h39.777c1.341-.002 2.627-.459 3.575-1.271.948-.813 1.482-1.915 1.484-3.064v-30.954c-.002-1.149-.536-2.251-1.484-3.064-.948-.812-2.234-1.269-3.575-1.271z" fill="#1b3c47"/><path d="m97.5561 372.487-38.5032.553c-4.1284.059-7.419 2.975-7.3498 6.512l.0001.006c.0692 3.538 3.472 6.357 7.6003 6.298l38.5032-.553c4.1283-.059 7.4193-2.975 7.3493-6.512v-.006c-.069-3.538-3.472-6.357-7.5999-6.298z" fill="#fff"/><path d="m105.1 378.828v.108c-.002 1.68-.773 3.292-2.147 4.49-1.375 1.198-3.2429 1.886-5.2031 1.916l-38.5367.546c-.9818.015-1.9573-.137-2.8707-.446-.9134-.308-1.7469-.768-2.4529-1.353s-1.2705-1.283-1.6615-2.055-.6007-1.602-.6171-2.443v-.162c0-.108 0 3.386 0 3.278l34.718-.601c9.1087 0 11.7362-3.002 11.2948-9.606 1.9665.002 3.8532.667 5.2522 1.851s2.198 2.792 2.224 4.477z" fill="#cfd2e8"/><path d="m169.792 275.866h-26.113c-.558 0-1.093-.19-1.487-.527-.394-.338-.615-.796-.615-1.274s.221-.936.615-1.273c.394-.338.929-.528 1.487-.528h26.113c2.553.007 5.082-.421 7.44-1.258 2.359-.837 4.5-2.066 6.3-3.617.399-.318.926-.491 1.47-.483.545.008 1.065.197 1.45.527s.605.775.615 1.242-.193.918-.564 1.26c-2.189 1.886-4.793 3.381-7.662 4.4-2.868 1.018-5.944 1.538-9.049 1.531z" fill="#1b3c47"/><path d="m489.107 117.971c-1.94 0-3.837-.493-5.45-1.416-1.613-.924-2.87-2.237-3.613-3.773-.742-1.535-.937-3.225-.558-4.856.378-1.63 1.313-3.128 2.685-4.303 1.371-1.176 3.119-1.976 5.022-2.301 1.903-.324 3.875-.157 5.668.479 1.792.636 3.324 1.713 4.402 3.095 1.078 1.383 1.653 3.008 1.653 4.67 0 2.229-1.033 4.367-2.873 5.943-1.84 1.577-4.335 2.462-6.936 2.462zm0-13.208c-1.109 0-2.193.282-3.114.81-.922.527-1.641 1.277-2.065 2.155s-.535 1.843-.319 2.775.75 1.787 1.534 2.459 1.783 1.129 2.87 1.315c1.088.185 2.215.09 3.239-.274 1.024-.363 1.899-.979 2.515-1.769.616-.789.945-1.718.945-2.668 0-1.274-.59-2.495-1.642-3.396-1.051-.901-2.477-1.407-3.963-1.407z" fill="#f2bf46"/><path d="m479.297 132.98c2.322 0 4.204-1.613 4.204-3.602s-1.882-3.602-4.204-3.602c-2.321 0-4.204 1.613-4.204 3.602s1.883 3.602 4.204 3.602z" fill="#b0d7e9"/><path d="m154.889 77.7468c-1.94 0-3.836-.4929-5.45-1.4165-1.613-.9235-2.87-2.2362-3.612-3.772-.743-1.5359-.937-3.2258-.559-4.8563.379-1.6304 1.313-3.128 2.685-4.3035s3.12-1.976 5.022-2.3003c1.903-.3243 3.876-.1578 5.668.4783 1.792.6362 3.324 1.7135 4.402 3.0957s1.653 3.0072 1.653 4.6696c0 2.2291-1.033 4.367-2.873 5.9433-1.839 1.5762-4.334 2.4617-6.936 2.4617zm0-13.2079c-1.108 0-2.192.2817-3.114.8094-.922.5278-1.64 1.2779-2.064 2.1555-.425.8776-.536 1.8433-.319 2.775.216.9316.75 1.7874 1.534 2.4591s1.782 1.1292 2.87 1.3145c1.087.1853 2.214.0902 3.238-.2733s1.9-.9791 2.516-1.769c.616-.7898.944-1.7184.944-2.6683 0-1.2738-.59-2.4955-1.641-3.3962s-2.477-1.4067-3.964-1.4067z" fill="#f2bf46"/><path d="m135.271 90.3544c2.321 0 4.204-1.6127 4.204-3.6021 0-1.9895-1.883-3.6022-4.204-3.6022-2.322 0-4.204 1.6127-4.204 3.6022 0 1.9894 1.882 3.6021 4.204 3.6021z" fill="#b0d7e9"/><path d="m315.054 474.844c-1.826.559-3.806.642-5.687.238-1.882-.405-3.581-1.278-4.884-2.51-1.302-1.232-2.149-2.767-2.433-4.411-.285-1.645.007-3.324.836-4.827.83-1.502 2.161-2.76 3.825-3.615 1.664-.854 3.587-1.266 5.524-1.185 1.938.082 3.804.654 5.362 1.644 1.558.991 2.738 2.355 3.392 3.92.434 1.039.625 2.142.562 3.244-.064 1.103-.38 2.184-.931 3.182s-1.326 1.893-2.281 2.635c-.955.741-2.071 1.313-3.285 1.685zm-5.185-12.439c-1.043.32-1.953.898-2.613 1.661s-1.041 1.676-1.096 2.625c-.054.949.221 1.89.791 2.704.57.815 1.409 1.467 2.411 1.873s2.122.549 3.218.409c1.097-.139 2.12-.553 2.942-1.191.821-.638 1.404-1.47 1.674-2.391.269-.921.214-1.89-.159-2.785-.248-.594-.63-1.14-1.124-1.608s-1.091-.847-1.757-1.117-1.387-.425-2.122-.456c-.736-.031-1.471.063-2.165.276z" fill="#f2bf46"/><path d="m41.5775 322.082c2.3218 0 4.204-1.613 4.204-3.602 0-1.99-1.8822-3.602-4.204-3.602s-4.204 1.612-4.204 3.602c0 1.989 1.8822 3.602 4.204 3.602z" fill="#b0d7e9"/><path d="m69.3239 478.488c-.2303.001-.4585-.037-.6715-.112-.2129-.076-.4064-.186-.5692-.326-.1628-.139-.2918-.305-.3795-.487-.0877-.183-.1324-.378-.1315-.576v-91.255c0-.398.1846-.779.5131-1.061.3285-.281.774-.44 1.2386-.44.4645 0 .9101.159 1.2386.44.3285.282.513.663.513 1.061v91.255c0 .398-.1845.78-.513 1.062-.3285.281-.7741.439-1.2386.439z" fill="#1b3c47"/><path d="m59.1432 387.359c-2.4474.017-4.8022-.8-6.5466-2.271-1.7443-1.471-2.7352-3.475-2.7548-5.572-.0195-2.097.934-4.115 2.6508-5.61 1.7167-1.494 4.0561-2.343 6.5034-2.36l38.5367-.552c2.4141.01 4.7273.831 6.4443 2.285s2.701 3.427 2.741 5.495-.866 4.068-2.525 5.57c-1.66 1.503-3.94 2.389-6.352 2.469l-38.5016.546zm38.5086-13.334h-.0981l-38.5016.553c-1.1242.024-2.2153.331-3.1373.883-.9221.551-1.6343 1.323-2.0481 2.219s-.5108 1.877-.279 2.819c.2318.943.7822 1.807 1.5827 2.484.5371.452 1.175.806 1.8756 1.043.7007.236 1.4496.349 2.2023.332l38.5016-.547c1.4851-.054 2.8871-.6 3.9111-1.523 1.024-.924 1.59-2.152 1.577-3.425-.013-1.274-.603-2.494-1.645-3.402s-2.4553-1.433-3.9412-1.466z" fill="#1b3c47"/><path d="m100.237 221.533c-.4731 0-.9323-.138-1.303-.39l-38.5366-26.14c-.409-.303-.6655-.731-.7161-1.192-.0505-.462.1087-.923.4446-1.286.3359-.364.8226-.603 1.3587-.666.5361-.064 1.0803.051 1.5193.323l38.5361 26.14c.342.232.591.549.712.908.122.359.11.741-.033 1.094s-.411.659-.766.875c-.355.217-.78.334-1.216.334z" fill="#1b3c47"/><path d="m220.752 221.533c-.436 0-.861-.117-1.216-.334-.355-.216-.623-.522-.766-.875s-.155-.735-.033-1.094c.121-.359.37-.676.712-.908l38.536-26.14c.439-.272.983-.387 1.519-.323.536.063 1.023.302 1.359.666.336.363.495.824.445 1.286-.051.461-.307.889-.716 1.192l-38.537 26.14c-.371.252-.83.39-1.303.39z" fill="#1b3c47"/><path d="m129.574 314.259v5.632c0 3.614.831 7.192 2.445 10.531s3.98 6.373 6.962 8.929c2.983 2.555 6.524 4.582 10.42 5.965 3.897 1.383 8.074 2.095 12.292 2.095 4.217 0 8.394-.712 12.291-2.095s7.437-3.41 10.42-5.965c2.982-2.556 5.348-5.59 6.962-8.929s2.445-6.917 2.445-10.531v-5.632l-31.257 5.524z" fill="#f4ceae"/><path d="m194.568 312.05v5.631c-.002 4.117-1.08 8.18-3.157 11.892-2.076 3.712-5.097 6.978-8.84 9.558-3.743 2.579-8.114 4.407-12.791 5.349-4.676.941-9.54.973-14.232.092 7.15-1.35 13.548-4.752 18.135-9.642s7.088-10.975 7.089-17.249l2.102-1.495z" fill="#ffb594"/><path d="m161.728 321.296c-11.248.03-22.388-1.88-32.756-5.617s-19.752-9.224-27.593-16.135c-.39-.341-.606-.801-.6-1.279s.233-.935.632-1.269c.398-.334.936-.519 1.494-.514.557.005 1.09.199 1.48.541 9.395 8.228 21.05 14.303 33.897 17.668s26.474 3.912 39.632 1.591c13.158-2.32 25.425-7.435 35.676-14.874 10.252-7.439 18.159-16.965 22.997-27.703.201-.446.6-.805 1.11-.999.509-.194 1.088-.206 1.608-.034.521.172.94.514 1.166.951s.24.933.04 1.379c-6.143 13.629-16.956 25.346-31.018 33.609s-30.714 12.685-47.765 12.685z" fill="#1b3c47"/><path d="m268.355 336.917 63.761-76.846 18.567-25.516-9.459-6.303-4.904 3.001 12.324-17.602c.309-.442.51-.932.592-1.441.081-.509.042-1.028-.115-1.524-.158-.496-.431-.96-.803-1.364-.372-.403-.835-.738-1.362-.985-.987-.463-2.142-.589-3.233-.351-1.091.237-2.036.82-2.646 1.63l-19.899 26.416.428 10.254c0 1.531-.561 3.855.602 5.181 1.451 1.645 4.807 1.718 6.642.601 1.997-1.237 2.887-3.602 3.174-5.614.582-4.088-1.443-8.273-6.13-9.827-2.175-.744-4.591-.789-6.802-.127-2.21.662-4.067 1.986-5.229 3.729-1.393 2.114-2.554 4.335-3.468 6.634l-9.676 10.092-20.838 21.781-19.885 20.772-5.787 6.076c-.61.63-1.143.997-1.086 1.801.063.901.966 2.119 1.352 2.954" fill="#f4ceae"/><path d="m351.321 210.607c-.186-.024-.373-.036-.561-.036-.744 0-1.477.159-2.13.465-.654.305-1.208.746-1.611 1.282l-18.119 24.014-1.787 2.372v.048c-1.291.118-2.541.462-3.672 1.008-1.521.735-2.78 1.81-3.643 3.11-1.397 2.132-2.558 4.371-3.468 6.688l-9.656 10.086-20.802 21.782-19.885 20.778-5.788 6.052c-.609.6-1.142.996-1.086 1.801.063.894.967 2.119 1.352 2.948l9.656 22.417.35.901-13.859-26.62c-.386-.829-1.289-2.054-1.352-2.948-.056-.799.476-1.165 1.086-1.801l5.787-6.052 19.885-20.778 20.803-21.77 9.676-10.092c.91-2.317 2.072-4.556 3.468-6.688.751-1.134 1.806-2.099 3.078-2.815s2.724-1.163 4.237-1.303v-.048l19.906-26.416c.403-.536.957-.977 1.611-1.282.654-.306 1.386-.465 2.131-.465 1.083.001 2.129.341 2.942.955.812.615 1.336 1.462 1.472 2.383z" fill="#fceade"/><path d="m255.876 311.204c-.352-.001-.696-.092-.987-.263-.292-.17-.516-.411-.645-.692-.106-.234-.26-.492-.421-.769-.539-.816-.893-1.712-1.044-2.641-.022-.479.075-.957.285-1.401s.529-.844.934-1.175l.26-.264 55.955-58.451c.93-2.317 2.102-4.558 3.503-6.694 1.364-2.062 3.554-3.63 6.163-4.416 2.61-.786 5.463-.736 8.033.141 5.058 1.681 7.966 6.262 7.237 11.407-.245 1.741-1.079 4.917-3.881 6.652-2.481 1.537-7.007 1.483-9.067-.894-1.282-1.453-1.135-3.41-1.016-4.983 0-.403.056-.781.056-1.093-.001-.197.044-.392.131-.575.087-.182.215-.348.377-.488s.355-.251.567-.327c.212-.077.44-.116.67-.117.463 0 .908.157 1.236.438.328.28.514.66.516 1.057 0 .414 0 .84-.064 1.297-.084 1.08-.182 2.401.316 3.002.827.942 3.118.948 4.204.27 1.786-1.111 2.312-3.572 2.459-4.581.407-2.9-.658-6.796-5.031-8.249-1.783-.61-3.763-.649-5.577-.108-1.814.54-3.339 1.623-4.295 3.05-1.332 2.045-2.439 4.191-3.307 6.412l-.098.276-56.383 58.907c-.105.114-.21.216-.315.319-.139.129-.266.267-.379.414.154.532.39 1.045.701 1.525.196.348.378.672.526.99.085.184.127.379.123.577-.004.197-.053.391-.145.572s-.224.344-.39.481-.362.244-.576.315c-.203.06-.417.086-.631.079z" fill="#1b3c47"/><path d="m269.756 337.818c-.325 0-.644-.078-.921-.225-.276-.146-.5-.356-.645-.605-.146-.249-.207-.529-.178-.806.029-.278.148-.543.343-.766l63.726-76.804 16.71-23.474-8.681-6.376c-.353-.26-.571-.629-.607-1.026-.035-.398.115-.791.418-1.093.303-.303.734-.49 1.197-.52.464-.031.923.098 1.276.357l10.938 8.039-18.358 25.816-63.76 76.846c-.164.2-.382.363-.637.474-.254.111-.536.167-.821.163z" fill="#1b3c47"/><path d="m270.734 338.824-14.244-30.655c-1.528-3.287-5.876-4.891-9.712-3.582l-.006.002c-3.836 1.309-5.708 5.034-4.181 8.321l14.245 30.656c1.527 3.287 5.875 4.89 9.711 3.582l.007-.003c3.836-1.308 5.708-5.034 4.18-8.321z" fill="#fff"/><path d="m263.773 349.098c-1.846-.004-3.648-.48-5.174-1.368-1.527-.888-2.71-2.147-3.396-3.615l-14.244-30.654c-.488-.971-.743-2.016-.752-3.074-.008-1.057.231-2.105.703-3.082s1.168-1.862 2.047-2.605c.878-.742 1.922-1.326 3.068-1.718 1.146-.391 2.372-.581 3.606-.56 1.234.022 2.45.255 3.577.687 1.126.431 2.141 1.051 2.983 1.824.842.772 1.495 1.682 1.92 2.674l14.245 30.655c.555 1.2.759 2.499.595 3.783-.165 1.283-.693 2.513-1.54 3.581-.846 1.069-1.985 1.944-3.316 2.549s-2.815.922-4.322.923zm-14.238-43.472c-.935 0-1.856.196-2.683.571-.826.376-1.533.919-2.058 1.582-.524.664-.851 1.427-.952 2.224s.028 1.603.375 2.347l14.238 30.655c.26.62.663 1.189 1.185 1.673s1.152.873 1.853 1.143c.702.271 1.459.418 2.228.433.769.014 1.534-.104 2.248-.348.715-.243 1.365-.608 1.911-1.072.547-.463.979-1.016 1.271-1.626s.438-1.263.428-1.922c-.009-.659-.173-1.31-.481-1.914l-14.245-30.654c-.425-.911-1.159-1.693-2.106-2.244-.948-.551-2.067-.846-3.212-.848z" fill="#1b3c47"/><path d="m322.397 236.344c-.314 0-.623-.074-.893-.212-.27-.139-.492-.337-.642-.574-.149-.237-.222-.504-.21-.774.013-.269.11-.531.281-.757l19.899-26.416c.851-1.125 2.165-1.935 3.681-2.269 1.517-.334 3.124-.167 4.503.468.734.344 1.38.811 1.899 1.374.518.562.899 1.209 1.119 1.901s.274 1.414.16 2.125c-.114.71-.394 1.393-.824 2.008l-12.332 17.603c-.091.202-.233.384-.414.535-.181.15-.399.266-.637.337-.238.072-.492.099-.743.079-.252-.02-.495-.086-.714-.194s-.408-.256-.554-.433c-.146-.176-.246-.378-.292-.59-.047-.213-.039-.432.022-.642.062-.21.175-.406.333-.575l12.325-17.596c.355-.521.459-1.14.289-1.725-.169-.586-.598-1.092-1.195-1.411-.597-.318-1.316-.425-2.004-.297s-1.29.481-1.679.983l-19.899 26.386c-.163.207-.384.376-.642.492-.258.117-.545.176-.837.174z" fill="#1b3c47"/><path d="m503.688 182.696.805 6.376.806 6.376-6.852-2.588-6.846-2.593 6.047-3.789z" fill="#007942"/><path d="m243.509 22.9638-5.829-4.0224-5.83-4.0224 6.979-2.3174 6.979-2.3174-1.15 6.3398z" fill="#007942"/><path d="m346.647 462.921-5.829-4.023-5.83-4.022 6.979-2.311 6.979-2.318-1.15 6.34z" fill="#007942"/><path d="m161.896 349.212c-9.073-.009-17.77-3.101-24.185-8.598-6.416-5.497-10.025-12.95-10.036-20.723v-5.632c0-.477.222-.935.616-1.273s.929-.528 1.486-.528c.558 0 1.092.19 1.487.528.394.338.615.796.615 1.273v5.632c.121 6.754 3.336 13.196 8.953 17.936s13.184 7.396 21.067 7.396c7.884 0 15.451-2.656 21.067-7.396 5.617-4.74 8.833-11.182 8.953-17.936v-5.632c0-.477.222-.935.616-1.273s.929-.528 1.486-.528c.558 0 1.092.19 1.487.528.394.338.615.796.615 1.273v5.632c-.011 7.774-3.621 15.228-10.037 20.725-6.417 5.497-15.117 8.588-24.19 8.596z" fill="#1b3c47"/></g></svg>