<svg fill="none" height="662" viewBox="0 0 972 662" width="972" xmlns="http://www.w3.org/2000/svg" xmlns:xlink="http://www.w3.org/1999/xlink"><linearGradient id="a"><stop offset="0" stop-color="#808080" stop-opacity=".25"/><stop offset=".53514" stop-color="#808080" stop-opacity=".12"/><stop offset="1" stop-color="#808080" stop-opacity=".1"/></linearGradient><linearGradient id="b" gradientUnits="userSpaceOnUse" x1="865.166" x2="865.166" xlink:href="#a" y1="619.59" y2="527.785"/><linearGradient id="c" gradientUnits="userSpaceOnUse" x1="211708" x2="211708" xlink:href="#a" y1="345274" y2="63201.5"/><linearGradient id="d" gradientUnits="userSpaceOnUse" x1="200942" x2="200942" xlink:href="#a" y1="146825" y2="90231.3"/><clipPath id="e"><path d="m0 0h971.44v662h-971.44z"/></clipPath><path d="m0 0h972v662h-972z" fill="#e5e5e5"/><g clip-path="url(#e)"><path d="m145.834 537.809c-6.984 26.598-31.459 43.22-31.459 43.22s-13.15-26.502-6.166-53.1c6.985-26.598 31.459-43.219 31.459-43.219s13.151 26.501 6.166 53.099z" fill="#f09819"/><path d="m135.24 532.183c-19.562 19.327-21.751 48.831-21.751 48.831s29.528-1.831 49.091-21.159c19.563-19.327 21.751-48.831 21.751-48.831s-29.528 1.832-49.091 21.159z" fill="#ffe52c"/><path d="m159.772 573.241h-76.521c-8.3934 0-15.1975 6.804-15.1975 15.198v15.101c0 8.393 6.8041 15.197 15.1975 15.197h76.521c8.393 0 15.197-6.804 15.197-15.197v-15.101c0-8.394-6.804-15.198-15.197-15.198z" fill="#007942"/><path d="m895.494 544.178v-16.393h-81.969v75.821c0 2.099.414 4.178 1.217 6.117s1.981 3.701 3.465 5.185c1.484 1.485 3.246 2.662 5.185 3.465 1.94.804 4.018 1.217 6.117 1.217h50.001c4.24 0 8.305-1.684 11.303-4.682 2.997-2.997 4.681-7.063 4.681-11.302v-16.804c5.645-.011 11.056-2.261 15.043-6.256 3.988-3.996 6.228-9.411 6.228-15.056s-2.24-11.059-6.228-15.055c-3.987-3.996-9.398-6.246-15.043-6.257zm0 34.427v-26.23c3.479 0 6.814 1.382 9.274 3.842 2.46 2.459 3.841 5.795 3.841 9.273 0 3.479-1.381 6.814-3.841 9.274s-5.795 3.841-9.274 3.841z" fill="url(#b)" opacity=".49"/><g fill="#007942"><path d="m892.857 546.744c-3.849 0-7.611 1.142-10.811 3.28s-5.694 5.177-7.167 8.733c-1.472 3.555-1.858 7.468-1.107 11.242.751 3.775 2.604 7.242 5.326 9.964 2.721 2.721 6.188 4.574 9.963 5.325 3.774.751 7.687.365 11.243-1.107 3.555-1.473 6.594-3.967 8.732-7.167 2.139-3.2 3.28-6.962 3.28-10.811 0-5.161-2.05-10.11-5.7-13.759-3.649-3.649-8.598-5.7-13.759-5.7zm0 31.434c-2.368 0-4.683-.703-6.653-2.018-1.969-1.316-3.504-3.186-4.41-5.374s-1.144-4.596-.682-6.919c.463-2.323 1.603-4.457 3.278-6.131 1.674-1.675 3.808-2.815 6.131-3.277s4.73-.225 6.919.681c2.188.906 4.058 2.441 5.374 4.41 1.315 1.97 2.018 4.285 2.018 6.653 0 3.176-1.262 6.222-3.508 8.467-2.245 2.246-5.291 3.508-8.467 3.508z"/><path d="m892.857 546.744c-3.849 0-7.611 1.142-10.811 3.28s-5.694 5.177-7.167 8.733c-1.472 3.555-1.858 7.468-1.107 11.242.751 3.775 2.604 7.242 5.326 9.964 2.721 2.721 6.188 4.574 9.963 5.325 3.774.751 7.687.365 11.243-1.107 3.555-1.473 6.594-3.967 8.732-7.167 2.139-3.2 3.28-6.962 3.28-10.811 0-5.161-2.05-10.11-5.7-13.759-3.649-3.649-8.598-5.7-13.759-5.7zm0 31.434c-2.368 0-4.683-.703-6.653-2.018-1.969-1.316-3.504-3.186-4.41-5.374s-1.144-4.596-.682-6.919c.463-2.323 1.603-4.457 3.278-6.131 1.674-1.675 3.808-2.815 6.131-3.277s4.73-.225 6.919.681c2.188.906 4.058 2.441 5.374 4.41 1.315 1.97 2.018 4.285 2.018 6.653 0 3.176-1.262 6.222-3.508 8.467-2.245 2.246-5.291 3.508-8.467 3.508z" opacity=".1"/><path d="m818.016 531.776h74.841v74.072c0 2.586-1.027 5.066-2.856 6.895-1.828 1.828-4.308 2.855-6.894 2.855h-55.341c-2.586 0-5.066-1.027-6.895-2.855-1.828-1.829-2.855-4.309-2.855-6.895z"/></g><path d="m971.44 615.598h-971.44v32.931h971.44z" fill="#e0e0e0"/><path d="m638.969 395.265c-10.411-37.792-69.437-65.389-113.85-71.508.006-.279.021-.555.021-.836v-32.35c.047-.017.096-.032.143-.049v-1.226c15.762-5.862 29.985-15.231 41.594-27.398s20.3-26.814 25.416-42.834c2.745-4.963 5.135-10.114 7.15-15.416 4.741-1.726 8.322-9.544 8.322-18.938.018-3.214-.433-6.413-1.338-9.496.582-4.784.879-9.599.889-14.419.019-16.849-3.506-33.513-10.345-48.912-6.839-15.3983-16.839-29.1867-29.352-40.4702.372-1.9355.498-3.9102.376-5.8772-1.005-15.5271-17.59-26.0759-33.133-26.7815 4.106-4.6578 6.805-10.3854 7.784-16.5168s.198-12.41481-2.253-18.11975c-9.911 14.43925-30.258 15.97415-47.771 16.08775 7.556-2.9265 10.957-13.39716 6.562-20.20526185-18.304 24.53386185-53.985 29.07686185-75.756 50.59376185-4.743 4.7063-8.718 10.1278-11.78 16.0666-14.148 11.2712-25.571 25.5894-33.418 41.8876-7.846 16.299-11.914 34.158-11.901 52.247.01 4.776.301 9.547.872 14.289-.933 3.123-1.398 6.367-1.38 9.626 0 9.437 3.615 17.279 8.388 18.957 2.024 5.32 4.424 10.488 7.183 15.467 5.098 15.927 13.731 30.495 25.254 42.614 11.523 12.12 25.637 21.477 41.287 27.371v33.802c0 .261.015.517.02.776-44.582 6.014-104.079 33.828-114.398 71.924-8.912 32.899-18.424 69.028-23.157 90.241 40.568 28.505 125.693 45.243 179.041 45.243 50.687 0 133.533-15.107 172.907-41.063-4.265-23.308-14.078-61.024-23.377-94.777z" fill="url(#c)" opacity=".49"/><path d="m489.331 521.722c48.895 0 128.814-14.574 166.796-39.613-4.114-22.484-13.579-58.867-22.55-91.428-11.424-41.468-83.527-70.216-126.54-70.216h-41.449c-43.146 0-115.353 28.915-126.633 70.56-8.597 31.736-17.773 66.589-22.339 87.052 39.135 27.498 121.252 43.645 172.715 43.645z" fill="#007942"/><path d="m486.806 280.733c64.196 0 116.236-52.041 116.236-116.236s-52.04-116.236-116.236-116.236c-64.195 0-116.235 52.041-116.235 116.236s52.04 116.236 116.235 116.236z" fill="#253746"/><path d="m449.291 261.311h74.479v59.583c0 9.877-3.923 19.349-10.907 26.332-6.984 6.984-16.456 10.907-26.332 10.907-9.877 0-19.349-3.923-26.332-10.907-6.984-6.983-10.908-16.455-10.908-26.332z" fill="#000" opacity=".1"/><path d="m459.974 258.553h53.113c2.833 0 5.551 1.125 7.554 3.129 2.004 2.003 3.129 4.72 3.129 7.554v48.9c0 9.876-3.923 19.348-10.907 26.332-6.984 6.983-16.456 10.907-26.332 10.907-9.877 0-19.349-3.924-26.332-10.907-6.984-6.984-10.908-16.456-10.908-26.332v-48.9c0-2.834 1.126-5.551 3.129-7.554 2.004-2.004 4.721-3.129 7.554-3.129z" fill="#ffc3b0"/><path d="m449.429 289.434c24.004 8.968 50.426 9.041 74.479.206v-9.15h-74.479z" fill="#000" opacity=".1"/><path d="m486.806 294.421c58.958 0 106.753-47.795 106.753-106.753s-47.795-106.7527-106.753-106.7527c-58.957 0-106.752 47.7947-106.752 106.7527s47.795 106.753 106.752 106.753z" fill="#ffc3b0"/><path d="m410.766 90.5649s44.99 91.3231 171.902 38.2751l-29.546-46.333-52.376-18.8017z" fill="#000" opacity=".1"/><path d="m410.766 89.2219s44.99 91.3231 171.902 38.2751l-29.546-46.333-52.376-18.8017z" fill="#253746"/><path d="m410.367 83.0522c3.032-9.3912 8.274-17.9175 15.285-24.8626 21.002-20.7565 55.422-25.139 73.079-48.80596 4.24 6.56756.959 16.66826-6.33 19.49126 16.894-.1095 36.523-1.5901 46.083-15.5192 2.365 5.5033 3.118 11.5647 2.174 17.4795-.945 5.9147-3.549 11.4399-7.51 15.9332 14.995.6806 30.993 10.8566 31.962 25.835.646 9.9787-5.611 19.4265-13.811 25.1492-8.2 5.7224-18.121 8.3494-27.886 10.5024-28.505 6.285-131.647 32.627-113.046-25.2028z" fill="#253746"/><path d="m593.556 188.602h-2.83l-55.063 49.019c-53.047-24.845-91.994 0-91.994 0l-57.748-47.004-5.823.732c.79 28.017 12.567 54.601 32.789 74.009 20.222 19.409 47.266 30.086 75.292 29.725 28.027-.36 54.787-11.729 74.503-31.652 19.716-19.922 30.806-46.8 30.874-74.829zm-106.911 67.821c-20.768 0-37.604-4.209-37.604-9.401s16.836-9.401 37.604-9.401c20.767 0 37.603 4.209 37.603 9.401s-16.836 9.401-37.603 9.401z" fill="#253746"/><path d="m380.011 206.186c5.485 0 9.931-8.336 9.931-18.62 0-10.283-4.446-18.619-9.931-18.619-5.484 0-9.93 8.336-9.93 18.619 0 10.284 4.446 18.62 9.93 18.62z" fill="#ffc3b0"/><path d="m593.545 206.186c5.485 0 9.931-8.336 9.931-18.62 0-10.283-4.446-18.619-9.931-18.619-5.484 0-9.93 8.336-9.93 18.619 0 10.284 4.446 18.62 9.93 18.62z" fill="#ffc3b0"/><path d="m677.782 377.704h-384.124c-8.008 0-14.5 6.492-14.5 14.5v208.894c0 8.009 6.492 14.5 14.5 14.5h384.124c8.008 0 14.5-6.491 14.5-14.5v-208.894c0-8.008-6.492-14.5-14.5-14.5z" fill="url(#d)" opacity=".49"/><path d="m657.963 382.093h-344.486c-14.82 0-26.835 12.015-26.835 26.835v179.835c0 14.821 12.015 26.835 26.835 26.835h344.486c14.821 0 26.835-12.014 26.835-26.835v-179.835c0-14.82-12.014-26.835-26.835-26.835z" fill="#253746"/><path d="m485.72 512.317c7.44 0 13.472-6.031 13.472-13.471s-6.032-13.471-13.472-13.471-13.471 6.031-13.471 13.471 6.031 13.471 13.471 13.471z" fill="#fff"/><path d="m930.278 648.529h-889.1153v13.471h889.1153z" fill="#e0e0e0"/><path d="m930.278 648.529h-889.1153v4.49h889.1153z" fill="#000" opacity=".1"/><path d="m879.386 531.776v69.228c0 3.871-1.538 7.583-4.275 10.32s-6.449 4.274-10.319 4.274h7.484c3.87 0 7.582-1.537 10.319-4.274s4.275-6.449 4.275-10.32v-69.228z" fill="#000" opacity=".1"/><path d="m832.785 475.979c-1.263.216-2.687.557-3.305 1.678-.982 1.78.797 3.787 2.42 5.01 3 2.259 6.161 4.478 8.199 7.631 2.039 3.154 2.68 7.554.451 10.576-2.91 3.946-9.852 4.795-10.524 9.652-.432 3.118 2.264 5.778 4.995 7.343 6.742 3.862 15.432 4.892 20.315 10.935 2.02-4.154 6.539-6.555 11.042-7.581 4.504-1.025 9.183-.948 13.749-1.644 1.474-.225 3.135-.675 3.794-2.012 1.276-2.591-2.361-5.698-1.106-8.298.956-1.98 3.763-1.826 5.813-2.619 3.338-1.29 4.715-5.586 3.767-9.038-.947-3.451-3.623-6.148-6.437-8.359-7.584-5.96-16.704-9.465-25.928-11.985-4.289-1.173-9.325-3.012-13.781-3.189-4.301-.172-9.207 1.172-13.464 1.9z" fill="#f09819"/></g></svg>